<?xml version="1.0" encoding="UTF-8" standalone="no"?>
<!-- Created with Inkscape (http://www.inkscape.org/) -->

<svg
   xmlns:dc="http://purl.org/dc/elements/1.1/"
   xmlns:cc="http://creativecommons.org/ns#"
   xmlns:rdf="http://www.w3.org/1999/02/22-rdf-syntax-ns#"
   xmlns:svg="http://www.w3.org/2000/svg"
   xmlns="http://www.w3.org/2000/svg"
   xmlns:sodipodi="http://sodipodi.sourceforge.net/DTD/sodipodi-0.dtd"
   xmlns:inkscape="http://www.inkscape.org/namespaces/inkscape"
   id="svg2"
   version="1.1"
   inkscape:version="0.91 r13725"
   xml:space="preserve"
   width="487.48465"
   height="269.41251"
   viewBox="0 0 487.48465 269.41251"
   sodipodi:docname="recursuve_bisection.svg"><metadata
     id="metadata8"><rdf:RDF><cc:Work
         rdf:about=""><dc:format>image/svg+xml</dc:format><dc:type
           rdf:resource="http://purl.org/dc/dcmitype/StillImage" /><dc:title></dc:title></cc:Work></rdf:RDF></metadata><defs
     id="defs6"><clipPath
       clipPathUnits="userSpaceOnUse"
       id="clipPath18"><path
         d="m 0,3.62109 4580,0 0,2350.00001 -4580,0 L 0,3.62109 Z"
         id="path20"
         inkscape:connector-curvature="0" /></clipPath></defs><sodipodi:namedview
     pagecolor="#ffffff"
     bordercolor="#666666"
     borderopacity="1"
     objecttolerance="10"
     gridtolerance="10"
     guidetolerance="10"
     inkscape:pageopacity="0"
     inkscape:pageshadow="2"
     inkscape:window-width="1920"
     inkscape:window-height="1030"
     id="namedview4"
     showgrid="true"
     inkscape:zoom="2.1100437"
     inkscape:cx="307.51809"
     inkscape:cy="182.30841"
     inkscape:window-x="0"
     inkscape:window-y="0"
     inkscape:window-maximized="1"
     inkscape:current-layer="g10"
     fit-margin-top="0"
     fit-margin-left="0"
     fit-margin-right="0"
     fit-margin-bottom="0"><inkscape:grid
       type="xygrid"
       id="grid4218"
       originx="18.098411"
       originy="-12.79" /></sodipodi:namedview><g
     id="g10"
     inkscape:groupmode="layer"
     inkscape:label="ink_ext_XXXXXX"
     transform="matrix(1.25,0,0,-1.25,18.098411,282.2025)"><path
       inkscape:connector-curvature="0"
       id="path22"
       style="fill:#eeeeee;fill-opacity:1;fill-rule:evenodd;stroke:none"
       d="m 154.801,199.55 c 0,14.257 11.558,25.812 25.812,25.812 6.848,0 13.414,-2.719 18.254,-7.559 4.84,-4.839 7.563,-11.406 7.563,-18.253 0,-14.258 -11.559,-25.813 -25.817,-25.813 -14.254,0 -25.812,11.555 -25.812,25.813 z" /><path
       inkscape:connector-curvature="0"
       id="path24"
       style="fill:none;stroke:#595959;stroke-width:0.80000001;stroke-linecap:butt;stroke-linejoin:round;stroke-miterlimit:10;stroke-dasharray:none;stroke-opacity:1"
       d="m 154.801,199.55 c 0,14.257 11.558,25.812 25.812,25.812 6.848,0 13.414,-2.719 18.254,-7.559 4.84,-4.839 7.563,-11.406 7.563,-18.253 0,-14.258 -11.559,-25.813 -25.817,-25.813 -14.254,0 -25.812,11.555 -25.812,25.813 z" /><path
       inkscape:connector-curvature="0"
       id="path30"
       style="fill:#eeeeee;fill-opacity:1;fill-rule:evenodd;stroke:none"
       d="m 266.848,108.339 c -4.508,13.515 2.797,28.132 16.316,32.64 6.492,2.164 13.578,1.664 19.699,-1.398 6.121,-3.059 10.778,-8.426 12.942,-14.918 4.507,-13.52 -2.793,-28.1329 -16.313,-32.6411 -13.519,-4.5078 -28.137,2.7972 -32.644,16.3171 z" /><path
       inkscape:connector-curvature="0"
       id="path32"
       style="fill:none;stroke:#595959;stroke-width:0.80000001;stroke-linecap:butt;stroke-linejoin:round;stroke-miterlimit:10;stroke-dasharray:none;stroke-opacity:1"
       d="m 266.848,108.339 c -4.508,13.515 2.797,28.132 16.316,32.64 6.492,2.164 13.578,1.664 19.699,-1.398 6.121,-3.059 10.778,-8.426 12.942,-14.918 4.507,-13.52 -2.793,-28.1329 -16.313,-32.6411 -13.519,-4.5078 -28.137,2.7972 -32.644,16.3171 z" /><path
       inkscape:connector-curvature="0"
       id="path46"
       style="fill:none;stroke:#595959;stroke-width:0.80000001;stroke-linecap:butt;stroke-linejoin:round;stroke-miterlimit:10;stroke-dasharray:none;stroke-opacity:1"
       d="M 265.184,113.178 237.242,59.4359" /><path
       inkscape:connector-curvature="0"
       id="path48"
       style="fill:none;stroke:#595959;stroke-width:0.80000001;stroke-linecap:butt;stroke-linejoin:round;stroke-miterlimit:10;stroke-dasharray:none;stroke-opacity:1"
       d="m 317.57772,115.995 27.941,-53.7462" /><path
       inkscape:connector-curvature="0"
       id="path50"
       style="fill:#eeeeee;fill-opacity:1;fill-rule:evenodd;stroke:none"
       d="m 213.562,36.448 c 0,14.254 11.559,25.8122 25.813,25.8122 6.848,0 13.414,-2.7184 18.254,-7.5582 4.84,-4.8442 7.562,-11.4102 7.562,-18.254 0,-14.2582 -11.558,-25.816 -25.816,-25.816 -14.254,0 -25.813,11.5578 -25.813,25.816 z" /><path
       inkscape:connector-curvature="0"
       id="path52"
       style="fill:none;stroke:#595959;stroke-width:0.80000001;stroke-linecap:butt;stroke-linejoin:round;stroke-miterlimit:10;stroke-dasharray:none;stroke-opacity:1"
       d="m 213.562,36.448 c 0,14.254 11.559,25.8122 25.813,25.8122 6.848,0 13.414,-2.7184 18.254,-7.5582 4.84,-4.8442 7.562,-11.4102 7.562,-18.254 0,-14.2582 -11.558,-25.816 -25.816,-25.816 -14.254,0 -25.813,11.5578 -25.813,25.816 z" /><path
       inkscape:connector-curvature="0"
       id="path54"
       style="fill:#eeeeee;fill-opacity:1;fill-rule:evenodd;stroke:none"
       d="m 323.48,36.448 c 0,14.254 11.555,25.8122 25.813,25.8122 6.848,0 13.414,-2.7184 18.254,-7.5582 4.84,-4.8442 7.562,-11.4102 7.562,-18.254 0,-14.2582 -11.558,-25.816 -25.816,-25.816 -14.258,0 -25.813,11.5578 -25.813,25.816 z" /><path
       inkscape:connector-curvature="0"
       id="path56"
       style="fill:none;stroke:#595959;stroke-width:0.80000001;stroke-linecap:butt;stroke-linejoin:round;stroke-miterlimit:10;stroke-dasharray:none;stroke-opacity:1"
       d="m 323.48,36.448 c 0,14.254 11.555,25.8122 25.813,25.8122 6.848,0 13.414,-2.7184 18.254,-7.5582 4.84,-4.8442 7.562,-11.4102 7.562,-18.254 0,-14.2582 -11.558,-25.816 -25.816,-25.816 -14.258,0 -25.813,11.5578 -25.813,25.816 z" /><path
       inkscape:connector-curvature="0"
       id="path58"
       style="fill:none;stroke:#595959;stroke-width:0.80000001;stroke-linecap:butt;stroke-linejoin:round;stroke-miterlimit:10;stroke-dasharray:none;stroke-opacity:1"
       d="M 154.801,199.55 78.6051,130.257" /><path
       inkscape:connector-curvature="0"
       id="path60"
       style="fill:none;stroke:#595959;stroke-width:0.80000001;stroke-linecap:butt;stroke-linejoin:round;stroke-miterlimit:10;stroke-dasharray:none;stroke-opacity:1"
       d="m 206.43,199.55 76.722,-58.583" /><text
       xml:space="preserve"
       style="font-style:normal;font-weight:normal;font-size:20px;line-height:125%;font-family:sans-serif;letter-spacing:0px;word-spacing:0px;fill:#000000;fill-opacity:1;stroke:none;stroke-width:1px;stroke-linecap:butt;stroke-linejoin:miter;stroke-opacity:1"
       x="176"
       y="-200"
       id="text4297"
       sodipodi:linespacing="125%"
       transform="scale(1,-1)"><tspan
         sodipodi:role="line"
         id="tspan4299"
         x="176"
         y="-200"></tspan></text>
<text
       xml:space="preserve"
       style="font-style:normal;font-weight:normal;font-size:16px;line-height:125%;font-family:sans-serif;letter-spacing:0px;word-spacing:0px;fill:#000000;fill-opacity:1;stroke:none;stroke-width:1px;stroke-linecap:butt;stroke-linejoin:miter;stroke-opacity:1"
       x="164.24667"
       y="-195.86755"
       id="text4301"
       sodipodi:linespacing="125%"
       transform="scale(1,-1)"><tspan
         sodipodi:role="line"
         id="tspan4303"
         x="164.24667"
         y="-195.86755">SD1</tspan></text>
<text
       xml:space="preserve"
       style="font-style:normal;font-weight:normal;font-size:16px;line-height:125%;font-family:sans-serif;letter-spacing:0px;word-spacing:0px;fill:#000000;fill-opacity:1;stroke:none;stroke-width:1px;stroke-linecap:butt;stroke-linejoin:miter;stroke-opacity:1"
       x="274.80627"
       y="-110.93874"
       id="text4301-35-9"
       sodipodi:linespacing="125%"
       inkscape:transform-center-x="-17.535182"
       inkscape:transform-center-y="-3.3174668"
       transform="scale(1,-1)"><tspan
         sodipodi:role="line"
         id="tspan4303-62-1"
         x="274.80627"
         y="-110.93874">SD2</tspan></text>
<text
       xml:space="preserve"
       style="font-style:normal;font-weight:normal;font-size:16px;line-height:125%;font-family:sans-serif;letter-spacing:0px;word-spacing:0px;fill:#18ff18;fill-opacity:1;stroke:none;stroke-width:1px;stroke-linecap:butt;stroke-linejoin:miter;stroke-opacity:1;"
       x="222.72076"
       y="-31.432173"
       id="text4301-35-9-2"
       sodipodi:linespacing="125%"
       inkscape:transform-center-x="-17.535182"
       inkscape:transform-center-y="-3.3174668"
       transform="scale(1,-1)"><tspan
         sodipodi:role="line"
         id="tspan4303-62-1-7"
         x="222.72076"
         y="-31.432173">SD2</tspan></text>
<text
       xml:space="preserve"
       style="font-style:normal;font-weight:normal;font-size:16px;line-height:125%;font-family:sans-serif;letter-spacing:0px;word-spacing:0px;fill:#ff000d;fill-opacity:1;stroke:none;stroke-width:1px;stroke-linecap:butt;stroke-linejoin:miter;stroke-opacity:1"
       x="333.52902"
       y="-32.035732"
       id="text4301-35-9-0"
       sodipodi:linespacing="125%"
       inkscape:transform-center-x="-17.535182"
       inkscape:transform-center-y="-3.3174668"
       transform="scale(1,-1)"><tspan
         sodipodi:role="line"
         id="tspan4303-62-1-9"
         x="333.52902"
         y="-32.035732">SD4</tspan></text>
<path
       inkscape:connector-curvature="0"
       id="path30-0"
       style="fill:#eeeeee;fill-opacity:1;fill-rule:evenodd;stroke:none"
       d="m 39.207271,108.50953 c -4.508,13.515 2.797,28.132 16.316,32.64 6.492,2.164 13.578,1.664 19.699,-1.398 6.121,-3.059 10.778,-8.426 12.942,-14.918 4.507,-13.52 -2.793,-28.132896 -16.313,-32.641096 -13.519,-4.5078 -28.137,2.7972 -32.644,16.317096 z" /><path
       inkscape:connector-curvature="0"
       id="path32-7"
       style="fill:none;stroke:#595959;stroke-width:0.80000001;stroke-linecap:butt;stroke-linejoin:round;stroke-miterlimit:10;stroke-dasharray:none;stroke-opacity:1"
       d="m 39.207271,108.50953 c -4.508,13.515 2.797,28.132 16.316,32.64 6.492,2.164 13.578,1.664 19.699,-1.398 6.121,-3.059 10.778,-8.426 12.942,-14.918 4.507,-13.52 -2.793,-28.132896 -16.313,-32.641096 -13.519,-4.5078 -28.137,2.7972 -32.644,16.317096 z" /><path
       inkscape:connector-curvature="0"
       id="path46-8"
       style="fill:none;stroke:#595959;stroke-width:0.80000001;stroke-linecap:butt;stroke-linejoin:round;stroke-miterlimit:10;stroke-dasharray:none;stroke-opacity:1"
       d="M 37.543271,113.34853 9.6012709,59.606434" /><path
       inkscape:connector-curvature="0"
       id="path48-6"
       style="fill:none;stroke:#595959;stroke-width:0.80000001;stroke-linecap:butt;stroke-linejoin:round;stroke-miterlimit:10;stroke-dasharray:none;stroke-opacity:1"
       d="M 89.936991,116.16553 117.87799,62.419324" /><path
       inkscape:connector-curvature="0"
       id="path50-8"
       style="fill:#eeeeee;fill-opacity:1;fill-rule:evenodd;stroke:none"
       d="m -14.078729,36.618524 c 0,14.254 11.5589999,25.8122 25.813,25.8122 6.848,0 13.414,-2.7184 18.254,-7.5582 4.84,-4.8442 7.562,-11.4102 7.562,-18.254 0,-14.2582 -11.558,-25.816 -25.816,-25.816 -14.2540001,0 -25.813,11.5578 -25.813,25.816 z" /><path
       inkscape:connector-curvature="0"
       id="path52-8"
       style="fill:none;stroke:#595959;stroke-width:0.80000001;stroke-linecap:butt;stroke-linejoin:round;stroke-miterlimit:10;stroke-dasharray:none;stroke-opacity:1"
       d="m -14.078729,36.618524 c 0,14.254 11.5589999,25.8122 25.813,25.8122 6.848,0 13.414,-2.7184 18.254,-7.5582 4.84,-4.8442 7.562,-11.4102 7.562,-18.254 0,-14.2582 -11.558,-25.816 -25.816,-25.816 -14.2540001,0 -25.813,11.5578 -25.813,25.816 z" /><path
       inkscape:connector-curvature="0"
       id="path54-4"
       style="fill:#eeeeee;fill-opacity:1;fill-rule:evenodd;stroke:none"
       d="m 95.839271,36.618524 c 0,14.254 11.554999,25.8122 25.812999,25.8122 6.848,0 13.414,-2.7184 18.254,-7.5582 4.84,-4.8442 7.562,-11.4102 7.562,-18.254 0,-14.2582 -11.558,-25.816 -25.816,-25.816 -14.258,0 -25.812999,11.5578 -25.812999,25.816 z" /><path
       inkscape:connector-curvature="0"
       id="path56-3"
       style="fill:none;stroke:#595959;stroke-width:0.80000001;stroke-linecap:butt;stroke-linejoin:round;stroke-miterlimit:10;stroke-dasharray:none;stroke-opacity:1"
       d="m 95.839271,36.618524 c 0,14.254 11.554999,25.8122 25.812999,25.8122 6.848,0 13.414,-2.7184 18.254,-7.5582 4.84,-4.8442 7.562,-11.4102 7.562,-18.254 0,-14.2582 -11.558,-25.816 -25.816,-25.816 -14.258,0 -25.812999,11.5578 -25.812999,25.816 z" /><text
       xml:space="preserve"
       style="font-style:normal;font-weight:normal;font-size:16px;line-height:125%;font-family:sans-serif;letter-spacing:0px;word-spacing:0px;fill:#000000;fill-opacity:1;stroke:none;stroke-width:1px;stroke-linecap:butt;stroke-linejoin:miter;stroke-opacity:1"
       x="47.165546"
       y="-111.10928"
       id="text4301-35-9-1"
       sodipodi:linespacing="125%"
       inkscape:transform-center-x="-17.535182"
       inkscape:transform-center-y="-3.3174668"
       transform="scale(1,-1)"><tspan
         sodipodi:role="line"
         id="tspan4303-62-1-4"
         x="47.165546"
         y="-111.10928">SD1</tspan></text>
<text
       xml:space="preserve"
       style="font-style:normal;font-weight:normal;font-size:16px;line-height:125%;font-family:sans-serif;letter-spacing:0px;word-spacing:0px;fill:#002dff;fill-opacity:1;stroke:none;stroke-width:1px;stroke-linecap:butt;stroke-linejoin:miter;stroke-opacity:1;"
       x="-4.9199648"
       y="-31.602705"
       id="text4301-35-9-2-9"
       sodipodi:linespacing="125%"
       inkscape:transform-center-x="-17.535182"
       inkscape:transform-center-y="-3.3174668"
       transform="scale(1,-1)"><tspan
         sodipodi:role="line"
         id="tspan4303-62-1-7-2"
         x="-4.9199648"
         y="-31.602705"
         style="fill:#002dff;fill-opacity:1;">SD1</tspan></text>
<text
       xml:space="preserve"
       style="font-style:normal;font-weight:normal;font-size:16px;line-height:125%;font-family:sans-serif;letter-spacing:0px;word-spacing:0px;fill:#009f4b;fill-opacity:0.61585364;stroke:none;stroke-width:1px;stroke-linecap:butt;stroke-linejoin:miter;stroke-opacity:1"
       x="106.26743"
       y="-31.827126"
       id="text4301-35-9-0-0"
       sodipodi:linespacing="125%"
       inkscape:transform-center-x="-17.535182"
       inkscape:transform-center-y="-3.3174668"
       transform="scale(1,-1)"><tspan
         sodipodi:role="line"
         id="tspan4303-62-1-9-6"
         x="106.26743"
         y="-31.827126"
         style="fill:#009f4b;fill-opacity:0.61585364">SD3</tspan></text>
<path
       style="fill:none;fill-rule:evenodd;stroke:#000000;stroke-width:2;stroke-linecap:butt;stroke-linejoin:miter;stroke-opacity:1;stroke-miterlimit:4;stroke-dasharray:2,2;stroke-dashoffset:0"
       d="M 75.999999,152 296,152"
       id="path4842"
       inkscape:connector-curvature="0" /><text
       xml:space="preserve"
       style="font-style:normal;font-weight:normal;font-size:12px;line-height:125%;font-family:sans-serif;letter-spacing:0px;word-spacing:0px;fill:#000000;fill-opacity:1;stroke:none;stroke-width:1px;stroke-linecap:butt;stroke-linejoin:miter;stroke-opacity:1"
       x="142.21854"
       y="-156.2086"
       id="text4844"
       sodipodi:linespacing="125%"
       transform="scale(1,-1)"><tspan
         sodipodi:role="line"
         id="tspan4846"
         x="142.21854"
         y="-156.2086">split at level = 0</tspan></text>
<path
       style="fill:none;fill-rule:evenodd;stroke:#000000;stroke-width:2;stroke-linecap:butt;stroke-linejoin:miter;stroke-miterlimit:4;stroke-dasharray:2, 2;stroke-dashoffset:0;stroke-opacity:1"
       d="m 63.999999,80.000004 220.000001,0"
       id="path4842-8"
       inkscape:connector-curvature="0" /><text
       xml:space="preserve"
       style="font-style:normal;font-weight:normal;font-size:12px;line-height:125%;font-family:sans-serif;letter-spacing:0px;word-spacing:0px;fill:#000000;fill-opacity:1;stroke:none;stroke-width:1px;stroke-linecap:butt;stroke-linejoin:miter;stroke-opacity:1"
       x="130.21854"
       y="-84.208603"
       id="text4844-9"
       sodipodi:linespacing="125%"
       transform="scale(1,-1)"><tspan
         sodipodi:role="line"
         id="tspan4846-2"
         x="130.21854"
         y="-84.208603">split at level = 1</tspan></text>
</g></svg>