<?xml version="1.0" encoding="UTF-8" standalone="no"?>
<!-- Created with Inkscape (http://www.inkscape.org/) -->

<svg
   xmlns:dc="http://purl.org/dc/elements/1.1/"
   xmlns:cc="http://creativecommons.org/ns#"
   xmlns:rdf="http://www.w3.org/1999/02/22-rdf-syntax-ns#"
   xmlns:svg="http://www.w3.org/2000/svg"
   xmlns="http://www.w3.org/2000/svg"
   xmlns:sodipodi="http://sodipodi.sourceforge.net/DTD/sodipodi-0.dtd"
   xmlns:inkscape="http://www.inkscape.org/namespaces/inkscape"
   width="277.85992mm"
   height="79.474808mm"
   viewBox="0 0 984.54304 281.60365"
   id="svg18491"
   version="1.1"
   inkscape:version="0.91 r13725"
   sodipodi:docname="schema3.svg">
  <defs
     id="defs18493" />
  <sodipodi:namedview
     id="base"
     pagecolor="#ffffff"
     bordercolor="#666666"
     borderopacity="1.0"
     inkscape:pageopacity="0.0"
     inkscape:pageshadow="2"
     inkscape:zoom="1.4"
     inkscape:cx="518.13143"
     inkscape:cy="168.23044"
     inkscape:document-units="px"
     inkscape:current-layer="layer1"
     showgrid="true"
     fit-margin-top="0"
     fit-margin-left="0"
     fit-margin-right="0"
     fit-margin-bottom="0"
     inkscape:window-width="1920"
     inkscape:window-height="1030"
     inkscape:window-x="0"
     inkscape:window-y="0"
     inkscape:window-maximized="1">
    <inkscape:grid
       type="xygrid"
       id="grid19039"
       originx="-351.05157"
       originy="-192.95726" />
  </sodipodi:namedview>
  <metadata
     id="metadata18496">
    <rdf:RDF>
      <cc:Work
         rdf:about="">
        <dc:format>image/svg+xml</dc:format>
        <dc:type
           rdf:resource="http://purl.org/dc/dcmitype/StillImage" />
        <dc:title></dc:title>
      </cc:Work>
    </rdf:RDF>
  </metadata>
  <g
     inkscape:label="Layer 1"
     inkscape:groupmode="layer"
     id="layer1"
     transform="translate(-351.05156,-577.80131)">
    <g
       id="g13553"
       transform="translate(-4007.6706,-441.21703)">
      <path
         d="m 4606.8735,1126.1158 a 30,30 0 0 1 -29.9947,30 30,30 0 0 1 -30.0053,-29.9895 30,30 0 0 1 29.9843,-30.0105 30,30 0 0 1 30.0157,29.979"
         sodipodi:open="true"
         sodipodi:end="6.2824853"
         sodipodi:start="0"
         sodipodi:ry="30"
         sodipodi:rx="30"
         sodipodi:cy="1126.1158"
         sodipodi:cx="4576.8735"
         sodipodi:type="arc"
         id="path3338-8-99-2-2"
         style="fill:#ff0000;fill-opacity:1;stroke:#000000;stroke-width:1.50600004;stroke-miterlimit:1.79999995;stroke-dasharray:none;stroke-dashoffset:0;stroke-opacity:1" />
      <rect
         y="1076.6443"
         x="4526.4741"
         height="99.49514"
         width="100.03532"
         id="rect3340-7-7-6-7"
         style="fill:none;fill-opacity:1;stroke:#000000;stroke-width:1.84200001;stroke-miterlimit:1.79999995;stroke-dasharray:3.68400002, 1.84200001;stroke-dashoffset:0;stroke-opacity:1" />
      <path
         d="m 4597.8843,1187.2437 a 30,30 0 0 1 -29.9948,30 30,30 0 0 1 -30.0052,-29.9895 30,30 0 0 1 29.9842,-30.0105 30,30 0 0 1 30.0158,29.979"
         sodipodi:open="true"
         sodipodi:end="6.2824853"
         sodipodi:start="0"
         sodipodi:ry="30"
         sodipodi:rx="30"
         sodipodi:cy="1187.2437"
         sodipodi:cx="4567.8843"
         sodipodi:type="arc"
         id="path3338-3-4-2-3"
         style="fill:#ff0000;fill-opacity:1;stroke:#000000;stroke-width:1.50600004;stroke-miterlimit:1.79999995;stroke-dasharray:none;stroke-dashoffset:0;stroke-opacity:1" />
      <rect
         y="1137.7721"
         x="4517.4849"
         height="99.49514"
         width="100.03532"
         id="rect3340-75-9-7-6"
         style="fill:none;fill-opacity:1;stroke:#000000;stroke-width:1.84200001;stroke-miterlimit:1.79999995;stroke-dasharray:3.68400002, 1.84200001;stroke-dashoffset:0;stroke-opacity:1" />
      <path
         d="m 4624.5166,1242.5575 a 30,30 0 0 1 -29.9947,30 30,30 0 0 1 -30.0053,-29.9895 30,30 0 0 1 29.9843,-30.0105 30,30 0 0 1 30.0157,29.979"
         sodipodi:open="true"
         sodipodi:end="6.2824853"
         sodipodi:start="0"
         sodipodi:ry="30"
         sodipodi:rx="30"
         sodipodi:cy="1242.5575"
         sodipodi:cx="4594.5166"
         sodipodi:type="arc"
         id="path3338-2-7-1-1-3-4"
         style="fill:#ff0000;fill-opacity:1;stroke:#000000;stroke-width:1.50600004;stroke-miterlimit:1.79999995;stroke-dasharray:none;stroke-dashoffset:0;stroke-opacity:1" />
      <rect
         y="1193.0859"
         x="4544.1172"
         height="99.49514"
         width="100.03532"
         id="rect3340-0-8-5-1-4-79"
         style="fill:none;fill-opacity:1;stroke:#000000;stroke-width:1.84200001;stroke-miterlimit:1.79999995;stroke-dasharray:3.68400002, 1.84200001;stroke-dashoffset:0;stroke-opacity:1" />
      <rect
         y="1058.01"
         x="4418.7656"
         height="240.11197"
         width="227.25484"
         id="rect6810-6-33-72"
         style="fill:none;fill-opacity:0.42352941;stroke:#f6bebe;stroke-width:5;stroke-miterlimit:1.79999995;stroke-dasharray:none;stroke-dashoffset:0;stroke-opacity:1" />
      <rect
         y="1069.5648"
         x="4575.2969"
         height="226.84258"
         width="243.10652"
         id="rect6710-6-1-0-6"
         style="fill:none;fill-opacity:1;stroke:#5fa78d;stroke-width:5;stroke-miterlimit:4;stroke-dasharray:none;stroke-dashoffset:0;stroke-opacity:1" />
      <path
         d="m 4502.6704,1239.4506 a 30,30 0 0 1 -29.9947,30 30,30 0 0 1 -30.0053,-29.9895 30,30 0 0 1 29.9843,-30.0105 30,30 0 0 1 30.0157,29.979"
         sodipodi:open="true"
         sodipodi:end="6.2824853"
         sodipodi:start="0"
         sodipodi:ry="30"
         sodipodi:rx="30"
         sodipodi:cy="1239.4506"
         sodipodi:cx="4472.6704"
         sodipodi:type="arc"
         id="path3338-2-7-0-6-8-0"
         style="fill:#ff0000;fill-opacity:1;stroke:#000000;stroke-width:1.50600004;stroke-miterlimit:1.79999995;stroke-dasharray:none;stroke-dashoffset:0;stroke-opacity:1" />
      <rect
         y="1189.979"
         x="4422.271"
         height="99.49514"
         width="100.03532"
         id="rect3340-0-8-6-21-0-8"
         style="fill:none;fill-opacity:1;stroke:#000000;stroke-width:1.84200001;stroke-miterlimit:1.79999995;stroke-dasharray:3.68400002, 1.84200001;stroke-dashoffset:0;stroke-opacity:1" />
      <path
         d="m 4563.9785,1240.1649 a 30,30 0 0 1 -29.9947,30 30,30 0 0 1 -30.0053,-29.9895 30,30 0 0 1 29.9843,-30.0105 30,30 0 0 1 30.0157,29.979"
         sodipodi:open="true"
         sodipodi:end="6.2824853"
         sodipodi:start="0"
         sodipodi:ry="30"
         sodipodi:rx="30"
         sodipodi:cy="1240.1649"
         sodipodi:cx="4533.9785"
         sodipodi:type="arc"
         id="path3338-2-7-2-0-7-3"
         style="fill:#ff0000;fill-opacity:1;stroke:#000000;stroke-width:1.50600004;stroke-miterlimit:1.79999995;stroke-dasharray:none;stroke-dashoffset:0;stroke-opacity:1" />
      <rect
         y="1190.6932"
         x="4483.5791"
         height="99.49514"
         width="100.03532"
         id="rect3340-0-8-0-7-0-7"
         style="fill:none;fill-opacity:1;stroke:#000000;stroke-width:1.84200001;stroke-miterlimit:1.79999995;stroke-dasharray:3.68400002, 1.84200001;stroke-dashoffset:0;stroke-opacity:1" />
      <rect
         y="1261.309"
         x="4360.7432"
         height="25.32785"
         width="484.63876"
         id="rect12915-8-2-9"
         style="fill:none;fill-opacity:1;stroke:#0508f2;stroke-width:4.04199982;stroke-linecap:round;stroke-linejoin:miter;stroke-miterlimit:1.79999995;stroke-dasharray:none;stroke-dashoffset:0;stroke-opacity:1" />
      <g
         transform="translate(-400.80327,6.7665758)"
         id="g13521">
        <rect
           style="fill:none;fill-opacity:1;stroke:#becbc7;stroke-width:5;stroke-miterlimit:4;stroke-dasharray:none;stroke-dashoffset:0;stroke-opacity:1"
           id="rect6710-6-1-0-6-3"
           width="243.10652"
           height="226.84258"
           x="5470.3618"
           y="1058.2227" />
        <g
           id="g12715"
           transform="translate(4744.1571,-146.89909)">
          <path
             transform="matrix(0.00695828,-0.99997579,0.99997579,0.00695828,0,0)"
             d="m -1294.2709,787.74615 a 30,30 0 0 1 -29.9947,30 30,30 0 0 1 -30.0053,-29.9895 30,30 0 0 1 29.9843,-30.01049 30,30 0 0 1 30.0157,29.97899"
             sodipodi:open="true"
             sodipodi:end="6.2824853"
             sodipodi:start="0"
             sodipodi:ry="30"
             sodipodi:rx="30"
             sodipodi:cy="787.74615"
             sodipodi:cx="-1324.2709"
             sodipodi:type="arc"
             id="path3338-7-5-0-2-2"
             style="fill:#5fa78d;fill-opacity:1;stroke:#000000;stroke-width:1.50600004;stroke-miterlimit:1.79999995;stroke-dasharray:none;stroke-dashoffset:0;stroke-opacity:1" />
          <rect
             transform="matrix(0.00695828,-0.99997579,0.99997579,0.00695828,0,0)"
             y="738.27448"
             x="-1374.6702"
             height="99.49514"
             width="100.03532"
             id="rect3340-1-0-5-7-7"
             style="fill:none;fill-opacity:1;stroke:#000000;stroke-width:1.84200001;stroke-miterlimit:1.79999995;stroke-dasharray:3.68400002, 1.84200001;stroke-dashoffset:0;stroke-opacity:1" />
          <path
             transform="matrix(0.00695828,-0.99997579,0.99997579,0.00695828,0,0)"
             d="m -1237.9093,811.93658 a 30,30 0 0 1 -29.9948,30 30,30 0 0 1 -30.0052,-29.9895 30,30 0 0 1 29.9842,-30.01049 30,30 0 0 1 30.0158,29.97899"
             sodipodi:open="true"
             sodipodi:end="6.2824853"
             sodipodi:start="0"
             sodipodi:ry="30"
             sodipodi:rx="30"
             sodipodi:cy="811.93658"
             sodipodi:cx="-1267.9093"
             sodipodi:type="arc"
             id="path3338-8-5-9-6-4-15"
             style="fill:#5fa78d;fill-opacity:1;stroke:#000000;stroke-width:1.50600004;stroke-miterlimit:1.79999995;stroke-dasharray:none;stroke-dashoffset:0;stroke-opacity:1" />
          <rect
             transform="matrix(0.00695828,-0.99997579,0.99997579,0.00695828,0,0)"
             y="762.4649"
             x="-1318.3085"
             height="99.49514"
             width="100.03532"
             id="rect3340-7-9-6-7-2-8"
             style="fill:none;fill-opacity:1;stroke:#000000;stroke-width:1.84200001;stroke-miterlimit:1.79999995;stroke-dasharray:3.68400002, 1.84200001;stroke-dashoffset:0;stroke-opacity:1" />
          <path
             transform="matrix(0.00695828,-0.99997579,0.99997579,0.00695828,0,0)"
             d="m -1347.2944,816.93317 a 30,30 0 0 1 -29.9948,30 30,30 0 0 1 -30.0052,-29.9895 30,30 0 0 1 29.9842,-30.0105 30,30 0 0 1 30.0158,29.979"
             sodipodi:open="true"
             sodipodi:end="6.2824853"
             sodipodi:start="0"
             sodipodi:ry="30"
             sodipodi:rx="30"
             sodipodi:cy="816.93317"
             sodipodi:cx="-1377.2944"
             sodipodi:type="arc"
             id="path3338-2-7-9-1-4-3-8"
             style="fill:#5fa78d;fill-opacity:1;stroke:#000000;stroke-width:1.50600004;stroke-miterlimit:1.79999995;stroke-dasharray:none;stroke-dashoffset:0;stroke-opacity:1" />
          <rect
             transform="matrix(0.00695828,-0.99997579,0.99997579,0.00695828,0,0)"
             y="767.46149"
             x="-1427.6936"
             height="99.49514"
             width="100.03532"
             id="rect3340-0-8-4-1-7-8-4"
             style="fill:none;fill-opacity:1;stroke:#000000;stroke-width:1.84200001;stroke-miterlimit:1.79999995;stroke-dasharray:3.68400002, 1.84200001;stroke-dashoffset:0;stroke-opacity:1" />
          <path
             transform="matrix(0.00695828,-0.99997579,0.99997579,0.00695828,0,0)"
             d="m -1342.1809,926.98102 a 30,30 0 0 1 -29.9948,30 30,30 0 0 1 -30.0052,-29.9895 30,30 0 0 1 29.9842,-30.0105 30,30 0 0 1 30.0158,29.979"
             sodipodi:open="true"
             sodipodi:end="6.2824853"
             sodipodi:start="0"
             sodipodi:ry="30"
             sodipodi:rx="30"
             sodipodi:cy="926.98102"
             sodipodi:cx="-1372.1809"
             sodipodi:type="arc"
             id="path3338-2-7-0-1-5-4-6-5"
             style="fill:#5fa78d;fill-opacity:1;stroke:#000000;stroke-width:1.50600004;stroke-miterlimit:1.79999995;stroke-dasharray:none;stroke-dashoffset:0;stroke-opacity:1" />
          <rect
             transform="matrix(0.00695828,-0.99997579,0.99997579,0.00695828,0,0)"
             y="877.50983"
             x="-1422.5802"
             height="99.49514"
             width="100.03532"
             id="rect3340-0-8-6-2-9-8-0-6"
             style="fill:none;fill-opacity:1;stroke:#000000;stroke-width:1.84200001;stroke-miterlimit:1.79999995;stroke-dasharray:3.68400002, 1.84200001;stroke-dashoffset:0;stroke-opacity:1" />
        </g>
        <rect
           style="fill:none;fill-opacity:1;stroke:#0508f2;stroke-width:4.04199982;stroke-linecap:round;stroke-linejoin:miter;stroke-miterlimit:1.79999995;stroke-dasharray:none;stroke-dashoffset:0;stroke-opacity:1"
           id="rect12915-8-2-4"
           width="484.63876"
           height="25.32785"
           x="5257.4087"
           y="1253.9135" />
        <rect
           transform="translate(-3.0517578e-5,0)"
           style="fill:none;fill-opacity:0.42352941;stroke:#ff0000;stroke-width:5;stroke-miterlimit:1.79999995;stroke-dasharray:none;stroke-dashoffset:0;stroke-opacity:1"
           id="rect6810-6-33-72-2"
           width="227.25484"
           height="240.11197"
           x="5313.8301"
           y="1046.6678" />
      </g>
      <text
         sodipodi:linespacing="125%"
         id="text4936-0-5-4-4-1"
         y="1037.0825"
         x="4402.3022"
         style="font-style:normal;font-weight:normal;font-size:23.77598953px;line-height:125%;font-family:sans-serif;letter-spacing:0px;word-spacing:0px;fill:#ff0000;fill-opacity:1;stroke:none;stroke-width:1px;stroke-linecap:butt;stroke-linejoin:miter;stroke-opacity:1"
         xml:space="preserve"><tspan
           style="fill:#ff0000;fill-opacity:1"
           y="1037.0825"
           x="4402.3022"
           id="tspan4938-6-4-1-2-2"
           sodipodi:role="line">In subdomain=1 </tspan></text>
      <text
         sodipodi:linespacing="125%"
         id="text4936-6-8-9-1-2-2"
         y="1041.0184"
         x="4905.1177"
         style="font-style:normal;font-weight:normal;font-size:23.77598953px;line-height:125%;font-family:sans-serif;letter-spacing:0px;word-spacing:0px;fill:#5fa78d;fill-opacity:1;stroke:none;stroke-width:1px;stroke-linecap:butt;stroke-linejoin:miter;stroke-opacity:1"
         xml:space="preserve"><tspan
           style="fill:#5fa78d;fill-opacity:1"
           y="1041.0184"
           x="4905.1177"
           id="tspan4938-7-7-8-3-1-1"
           sodipodi:role="line">In subdomain=2 </tspan></text>
    </g>
  </g>
</svg>
