solid Created by Gmsh
facet normal 0.5 0.866026 3.16678e-07
  outer loop
    vertex 0 1 0
    vertex -0.8660256862640381 1.499999523162842 -5.540467213904776e-07
    vertex -0.8001036643981934 1.461939334869385 0.3826829493045807
  endloop
endfacet
facet normal 0.5 0.866026 3.46408e-07
  outer loop
    vertex 0 1 0
    vertex -0.8001036643981934 1.461939334869385 0.3826829493045807
    vertex -0.6123731136322021 1.353553056716919 0.7071064114570618
  endloop
endfacet
facet normal 0.5 0.866026 3.41221e-07
  outer loop
    vertex 0 1 0
    vertex -0.6123731136322021 1.353553056716919 0.7071064114570618
    vertex -0.3314142823219299 1.191341519355774 0.9238793253898621
  endloop
endfacet
facet normal 0.499999 0.866026 3.00951e-07
  outer loop
    vertex 0 1 0
    vertex -0.3314142823219299 1.191341519355774 0.9238793253898621
    vertex -6.019026841386221e-07 1 1
  endloop
endfacet
facet normal 0.5 0.866026 3.00951e-07
  outer loop
    vertex 0 1 0
    vertex -6.019026841386221e-07 1 1
    vertex 0.3314131498336792 0.8086584210395813 0.9238797426223755
  endloop
endfacet
facet normal 0.5 0.866026 3.23604e-07
  outer loop
    vertex 0 1 0
    vertex 0.3314131498336792 0.8086584210395813 0.9238797426223755
    vertex 0.6123721599578857 0.6464469432830811 0.7071071863174438
  endloop
endfacet
facet normal 0.5 0.866026 3.0917e-07
  outer loop
    vertex 0 1 0
    vertex 0.6123721599578857 0.6464469432830811 0.7071071863174438
    vertex 0.8001031279563904 0.5380606651306152 0.3826839923858643
  endloop
endfacet
facet normal 0.5 0.866026 3.84217e-07
  outer loop
    vertex 0 1 0
    vertex 0.8001031279563904 0.5380606651306152 0.3826839923858643
    vertex 0.8660256862640381 0.5000004768371582 7.050425097077095e-07
  endloop
endfacet
facet normal 0.5 0.866026 2.59668e-07
  outer loop
    vertex 0 1 0
    vertex 0.8660256862640381 0.5000004768371582 7.050425097077095e-07
    vertex 0.8001037240028381 0.5380606055259705 -0.3826827108860016
  endloop
endfacet
facet normal 0.5 0.866026 3.53329e-07
  outer loop
    vertex 0 1 0
    vertex 0.8001037240028381 0.5380606055259705 -0.3826827108860016
    vertex 0.6123732924461365 0.6464468240737915 -0.7071061134338379
  endloop
endfacet
facet normal 0.499999 0.866026 2.74428e-07
  outer loop
    vertex 0 1 0
    vertex 0.6123732924461365 0.6464468240737915 -0.7071061134338379
    vertex 0.3314144015312195 0.8086583614349365 -0.9238792657852173
  endloop
endfacet
facet normal 0.5 0.866026 3.14715e-07
  outer loop
    vertex 0 1 0
    vertex 0.3314144015312195 0.8086583614349365 -0.9238792657852173
    vertex 6.294305876508588e-07 1 -1
  endloop
endfacet
facet normal 0.5 0.866026 3.14715e-07
  outer loop
    vertex 0 1 0
    vertex 6.294305876508588e-07 1 -1
    vertex -0.3314132392406464 1.191341638565063 -0.9238796830177307
  endloop
endfacet
facet normal 0.5 0.866026 3.22551e-07
  outer loop
    vertex 0 1 0
    vertex -0.3314132392406464 1.191341638565063 -0.9238796830177307
    vertex -0.6123723387718201 1.353553175926208 -0.7071069478988647
  endloop
endfacet
facet normal 0.5 0.866026 3.72072e-07
  outer loop
    vertex 0 1 0
    vertex -0.6123723387718201 1.353553175926208 -0.7071069478988647
    vertex -0.8001033663749695 1.461939454078674 -0.3826834857463837
  endloop
endfacet
facet normal 0.5 0.866026 3.42483e-07
  outer loop
    vertex -0.8001033663749695 1.461939454078674 -0.3826834857463837
    vertex -0.8660256862640381 1.499999523162842 -5.540467213904776e-07
    vertex 0 1 0
  endloop
endfacet
endsolid Created by Gmsh
