solid Created by Gmsh
facet normal 0.773012 0.634392 -9.50174e-07
  outer loop
    vertex 0.3535533845424652 0.3535533845424652 -0.05000000074505806
    vertex 0.3535540699958801 0.3535526990890503 0.05000000074505806
    vertex 0.4157353639602661 0.2777842879295349 0.05000000074505806
  endloop
endfacet
facet normal 0.77301 0.634393 9.57976e-07
  outer loop
    vertex 0.3535533845424652 0.3535533845424652 -0.05000000074505806
    vertex 0.4157353639602661 0.2777842879295349 0.05000000074505806
    vertex 0.4157348275184631 0.2777850925922394 -0.05000000074505806
  endloop
endfacet
facet normal 0.881922 0.471395 -9.3786e-07
  outer loop
    vertex 0.4157348275184631 0.2777850925922394 -0.05000000074505806
    vertex 0.4157353639602661 0.2777842879295349 0.05000000074505806
    vertex 0.4619401693344116 0.191340759396553 0.05000000074505806
  endloop
endfacet
facet normal 0.881921 0.471397 8.15925e-07
  outer loop
    vertex 0.4157348275184631 0.2777850925922394 -0.05000000074505806
    vertex 0.4619401693344116 0.191340759396553 0.05000000074505806
    vertex 0.4619397521018982 0.1913417130708694 -0.05000000074505806
  endloop
endfacet
facet normal 0.956941 0.290283 -1.22432e-06
  outer loop
    vertex 0.4619397521018982 0.1913417130708694 -0.05000000074505806
    vertex 0.4619401693344116 0.191340759396553 0.05000000074505806
    vertex 0.4903928637504578 0.09754409641027451 0.05000000074505806
  endloop
endfacet
facet normal 0.95694 0.290285 8.54522e-07
  outer loop
    vertex 0.4619397521018982 0.1913417130708694 -0.05000000074505806
    vertex 0.4903928637504578 0.09754409641027451 0.05000000074505806
    vertex 0.4903926253318787 0.09754517674446106 -0.05000000074505806
  endloop
endfacet
facet normal 0.995185 0.0980148 -1.31382e-06
  outer loop
    vertex 0.4903926253318787 0.09754517674446106 -0.05000000074505806
    vertex 0.4903928637504578 0.09754409641027451 0.05000000074505806
    vertex 0.5 -1.122557478083763e-06 0.05000000074505806
  endloop
endfacet
facet normal 0.995185 0.0980173 1.1373e-06
  outer loop
    vertex 0.4903926253318787 0.09754517674446106 -0.05000000074505806
    vertex 0.5 -1.122557478083763e-06 0.05000000074505806
    vertex 0.5 3.774895063202166e-08 -0.05000000074505806
  endloop
endfacet
facet normal 0.995185 -0.0980193 -1.13732e-06
  outer loop
    vertex 0.5 3.774895063202166e-08 -0.05000000074505806
    vertex 0.5 -1.122557478083763e-06 0.05000000074505806
    vertex 0.4903924465179443 -0.09754607081413269 0.05000000074505806
  endloop
endfacet
facet normal 0.995185 -0.098017 1.12675e-06
  outer loop
    vertex 0.5 3.774895063202166e-08 -0.05000000074505806
    vertex 0.4903924465179443 -0.09754607081413269 0.05000000074505806
    vertex 0.490392655134201 -0.09754510223865509 -0.05000000074505806
  endloop
endfacet
facet normal 0.95694 -0.290286 -8.15309e-07
  outer loop
    vertex 0.490392655134201 -0.09754510223865509 -0.05000000074505806
    vertex 0.4903924465179443 -0.09754607081413269 0.05000000074505806
    vertex 0.4619394838809967 -0.1913423836231232 0.05000000074505806
  endloop
endfacet
facet normal 0.95694 -0.290285 6.89115e-07
  outer loop
    vertex 0.490392655134201 -0.09754510223865509 -0.05000000074505806
    vertex 0.4619394838809967 -0.1913423836231232 0.05000000074505806
    vertex 0.4619397819042206 -0.1913416385650635 -0.05000000074505806
  endloop
endfacet
facet normal 0.881921 -0.471398 -8.83859e-07
  outer loop
    vertex 0.4619397819042206 -0.1913416385650635 -0.05000000074505806
    vertex 0.4619394838809967 -0.1913423836231232 0.05000000074505806
    vertex 0.4157344996929169 -0.2777855694293976 0.05000000074505806
  endloop
endfacet
facet normal 0.881921 -0.471396 6.4337e-07
  outer loop
    vertex 0.4619397819042206 -0.1913416385650635 -0.05000000074505806
    vertex 0.4157344996929169 -0.2777855694293976 0.05000000074505806
    vertex 0.4157348275184631 -0.2777850925922394 -0.05000000074505806
  endloop
endfacet
facet normal 0.77301 -0.634394 -4.90903e-07
  outer loop
    vertex 0.4157348275184631 -0.2777850925922394 -0.05000000074505806
    vertex 0.4157344996929169 -0.2777855694293976 0.05000000074505806
    vertex 0.3535531461238861 -0.3535536229610443 0.05000000074505806
  endloop
endfacet
facet normal 0.77301 -0.634393 3.30489e-07
  outer loop
    vertex 0.4157348275184631 -0.2777850925922394 -0.05000000074505806
    vertex 0.3535531461238861 -0.3535536229610443 0.05000000074505806
    vertex 0.3535533845424652 -0.3535533845424652 -0.05000000074505806
  endloop
endfacet
facet normal 0.634393 -0.773011 -3.3049e-07
  outer loop
    vertex 0.3535533845424652 -0.3535533845424652 -0.05000000074505806
    vertex 0.3535531461238861 -0.3535536229610443 0.05000000074505806
    vertex 0.2777850031852722 -0.4157348871231079 0.05000000074505806
  endloop
endfacet
facet normal 0.634393 -0.77301 1.06442e-07
  outer loop
    vertex 0.3535533845424652 -0.3535533845424652 -0.05000000074505806
    vertex 0.2777850031852722 -0.4157348871231079 0.05000000074505806
    vertex 0.2777850925922394 -0.4157348275184631 -0.05000000074505806
  endloop
endfacet
facet normal 0.471397 -0.881921 -1.04205e-07
  outer loop
    vertex 0.2777850925922394 -0.4157348275184631 -0.05000000074505806
    vertex 0.2777850031852722 -0.4157348871231079 0.05000000074505806
    vertex 0.1913417726755142 -0.4619397521018982 0.05000000074505806
  endloop
endfacet
facet normal 0.471397 -0.881921 -1.06526e-07
  outer loop
    vertex 0.2777850925922394 -0.4157348275184631 -0.05000000074505806
    vertex 0.1913417726755142 -0.4619397521018982 0.05000000074505806
    vertex 0.1913416385650635 -0.461939811706543 -0.05000000074505806
  endloop
endfacet
facet normal 0.290285 -0.95694 1.81078e-07
  outer loop
    vertex 0.1913416385650635 -0.461939811706543 -0.05000000074505806
    vertex 0.1913417726755142 -0.4619397521018982 0.05000000074505806
    vertex 0.09754542261362076 -0.4903925955295563 0.05000000074505806
  endloop
endfacet
facet normal 0.290284 -0.95694 -5.3264e-07
  outer loop
    vertex 0.1913416385650635 -0.461939811706543 -0.05000000074505806
    vertex 0.09754542261362076 -0.4903925955295563 0.05000000074505806
    vertex 0.09754504263401031 -0.490392655134201 -0.05000000074505806
  endloop
endfacet
facet normal 0.0980178 -0.995185 2.20729e-07
  outer loop
    vertex 0.09754504263401031 -0.490392655134201 -0.05000000074505806
    vertex 0.09754542261362076 -0.4903925955295563 0.05000000074505806
    vertex 4.649122899991198e-07 -0.5 0.05000000074505806
  endloop
endfacet
facet normal 0.0980169 -0.995185 -6.15383e-07
  outer loop
    vertex 0.09754504263401031 -0.490392655134201 -0.05000000074505806
    vertex 4.649122899991198e-07 -0.5 0.05000000074505806
    vertex -1.629206849429465e-07 -0.5 -0.05000000074505806
  endloop
endfacet
facet normal -0.098016 -0.995185 6.15377e-07
  outer loop
    vertex -1.629206849429465e-07 -0.5 -0.05000000074505806
    vertex 4.649122899991198e-07 -0.5 0.05000000074505806
    vertex -0.09754451364278793 -0.4903927743434906 0.05000000074505806
  endloop
endfacet
facet normal -0.0980176 -0.995185 -9.47001e-07
  outer loop
    vertex -1.629206849429465e-07 -0.5 -0.05000000074505806
    vertex -0.09754451364278793 -0.4903927743434906 0.05000000074505806
    vertex -0.09754536300897598 -0.4903925955295563 -0.05000000074505806
  endloop
endfacet
facet normal -0.290283 -0.956941 7.54423e-07
  outer loop
    vertex -0.09754536300897598 -0.4903925955295563 -0.05000000074505806
    vertex -0.09754451364278793 -0.4903927743434906 0.05000000074505806
    vertex -0.1913409233093262 -0.4619401097297668 0.05000000074505806
  endloop
endfacet
facet normal -0.290285 -0.95694 -1.33646e-06
  outer loop
    vertex -0.09754536300897598 -0.4903925955295563 -0.05000000074505806
    vertex -0.1913409233093262 -0.4619401097297668 0.05000000074505806
    vertex -0.1913419365882874 -0.461939662694931 -0.05000000074505806
  endloop
endfacet
facet normal -0.471395 -0.881922 8.34049e-07
  outer loop
    vertex -0.1913419365882874 -0.461939662694931 -0.05000000074505806
    vertex -0.1913409233093262 -0.4619401097297668 0.05000000074505806
    vertex -0.2777842283248901 -0.4157353937625885 0.05000000074505806
  endloop
endfacet
facet normal -0.471397 -0.881921 -1.23231e-06
  outer loop
    vertex -0.1913419365882874 -0.461939662694931 -0.05000000074505806
    vertex -0.2777842283248901 -0.4157353937625885 0.05000000074505806
    vertex -0.2777853608131409 -0.4157346487045288 -0.05000000074505806
  endloop
endfacet
facet normal -0.634392 -0.773012 1.42502e-06
  outer loop
    vertex -0.2777853608131409 -0.4157346487045288 -0.05000000074505806
    vertex -0.2777842283248901 -0.4157353937625885 0.05000000074505806
    vertex -0.3535524904727936 -0.3535542786121368 0.05000000074505806
  endloop
endfacet
facet normal -0.634394 -0.77301 -1.33944e-06
  outer loop
    vertex -0.2777853608131409 -0.4157346487045288 -0.05000000074505806
    vertex -0.3535524904727936 -0.3535542786121368 0.05000000074505806
    vertex -0.3535536229610443 -0.3535531759262085 -0.05000000074505806
  endloop
endfacet
facet normal -0.773009 -0.634395 1.75884e-06
  outer loop
    vertex -0.3535536229610443 -0.3535531759262085 -0.05000000074505806
    vertex -0.3535524904727936 -0.3535542786121368 0.05000000074505806
    vertex -0.4157339930534363 -0.2777863144874573 0.05000000074505806
  endloop
endfacet
facet normal -0.773011 -0.634393 -1.62043e-06
  outer loop
    vertex -0.3535536229610443 -0.3535531759262085 -0.05000000074505806
    vertex -0.4157339930534363 -0.2777863144874573 0.05000000074505806
    vertex -0.4157350063323975 -0.2777848243713379 -0.05000000074505806
  endloop
endfacet
facet normal -0.88192 -0.4714 1.91191e-06
  outer loop
    vertex -0.4157350063323975 -0.2777848243713379 -0.05000000074505806
    vertex -0.4157339930534363 -0.2777863144874573 0.05000000074505806
    vertex -0.4619391262531281 -0.1913432478904724 0.05000000074505806
  endloop
endfacet
facet normal -0.881922 -0.471396 -1.89467e-06
  outer loop
    vertex -0.4157350063323975 -0.2777848243713379 -0.05000000074505806
    vertex -0.4619391262531281 -0.1913432478904724 0.05000000074505806
    vertex -0.4619399309158325 -0.1913413405418396 -0.05000000074505806
  endloop
endfacet
facet normal -0.956939 -0.290288 2.16333e-06
  outer loop
    vertex -0.4619399309158325 -0.1913413405418396 -0.05000000074505806
    vertex -0.4619391262531281 -0.1913432478904724 0.05000000074505806
    vertex -0.49039226770401 -0.09754697978496552 0.05000000074505806
  endloop
endfacet
facet normal -0.956941 -0.290284 -2.25374e-06
  outer loop
    vertex -0.4619399309158325 -0.1913413405418396 -0.05000000074505806
    vertex -0.49039226770401 -0.09754697978496552 0.05000000074505806
    vertex -0.4903927147388458 -0.09754472970962524 -0.05000000074505806
  endloop
endfacet
facet normal -0.995184 -0.0980211 2.24327e-06
  outer loop
    vertex -0.4903927147388458 -0.09754472970962524 -0.05000000074505806
    vertex -0.49039226770401 -0.09754697978496552 0.05000000074505806
    vertex -0.5 -2.052381887551746e-06 0.05000000074505806
  endloop
endfacet
facet normal -0.995185 -0.0980163 -2.48489e-06
  outer loop
    vertex -0.4903927147388458 -0.09754472970962524 -0.05000000074505806
    vertex -0.5 -2.052381887551746e-06 0.05000000074505806
    vertex -0.5 4.827995780942729e-07 -0.05000000074505806
  endloop
endfacet
facet normal -0.995185 0.0980129 2.48481e-06
  outer loop
    vertex -0.5 4.827995780942729e-07 -0.05000000074505806
    vertex -0.5 -2.052381887551746e-06 0.05000000074505806
    vertex -0.4903930723667145 0.09754295647144318 0.05000000074505806
  endloop
endfacet
facet normal -0.995185 0.0980182 -2.67302e-06
  outer loop
    vertex -0.5 4.827995780942729e-07 -0.05000000074505806
    vertex -0.4903930723667145 0.09754295647144318 0.05000000074505806
    vertex -0.4903925359249115 0.09754567593336105 -0.05000000074505806
  endloop
endfacet
facet normal -0.956942 0.29028 2.76062e-06
  outer loop
    vertex -0.4903925359249115 0.09754567593336105 -0.05000000074505806
    vertex -0.4903930723667145 0.09754295647144318 0.05000000074505806
    vertex -0.4619407057762146 0.191339448094368 0.05000000074505806
  endloop
endfacet
facet normal -0.95694 0.290286 -3.03356e-06
  outer loop
    vertex -0.4903925359249115 0.09754567593336105 -0.05000000074505806
    vertex -0.4619407057762146 0.191339448094368 0.05000000074505806
    vertex -0.4619395434856415 0.1913422346115112 -0.05000000074505806
  endloop
endfacet
facet normal -0.881924 0.471392 2.88491e-06
  outer loop
    vertex -0.4619395434856415 0.1913422346115112 -0.05000000074505806
    vertex -0.4619407057762146 0.191339448094368 0.05000000074505806
    vertex -0.4157362878322601 0.2777829170227051 0.05000000074505806
  endloop
endfacet
facet normal -0.881921 0.471398 -3.24845e-06
  outer loop
    vertex -0.4619395434856415 0.1913422346115112 -0.05000000074505806
    vertex -0.4157362878322601 0.2777829170227051 0.05000000074505806
    vertex -0.4157344698905945 0.2777856290340424 -0.05000000074505806
  endloop
endfacet
facet normal -0.773014 0.634389 3.15176e-06
  outer loop
    vertex -0.4157344698905945 0.2777856290340424 -0.05000000074505806
    vertex -0.4157362878322601 0.2777829170227051 0.05000000074505806
    vertex -0.3535554111003876 0.3535513877868652 0.05000000074505806
  endloop
endfacet
facet normal -0.77301 0.634394 -3.61784e-06
  outer loop
    vertex -0.4157344698905945 0.2777856290340424 -0.05000000074505806
    vertex -0.3535554111003876 0.3535513877868652 0.05000000074505806
    vertex -0.3535529375076294 0.353553831577301 -0.05000000074505806
  endloop
endfacet
facet normal -0.634398 0.773007 3.19824e-06
  outer loop
    vertex -0.3535529375076294 0.353553831577301 -0.05000000074505806
    vertex -0.3535554111003876 0.3535513877868652 0.05000000074505806
    vertex -0.2777876555919647 0.415733128786087 0.05000000074505806
  endloop
endfacet
facet normal -0.634392 0.773011 -3.76673e-06
  outer loop
    vertex -0.3535529375076294 0.353553831577301 -0.05000000074505806
    vertex -0.2777876555919647 0.415733128786087 0.05000000074505806
    vertex -0.2777845561504364 0.4157351851463318 -0.05000000074505806
  endloop
endfacet
facet normal -0.471402 0.881918 3.52458e-06
  outer loop
    vertex -0.2777845561504364 0.4157351851463318 -0.05000000074505806
    vertex -0.2777876555919647 0.415733128786087 0.05000000074505806
    vertex -0.1913447082042694 0.4619385302066803 0.05000000074505806
  endloop
endfacet
facet normal -0.471396 0.881922 -3.87538e-06
  outer loop
    vertex -0.2777845561504364 0.4157351851463318 -0.05000000074505806
    vertex -0.1913447082042694 0.4619385302066803 0.05000000074505806
    vertex -0.1913410425186157 0.4619400501251221 -0.05000000074505806
  endloop
endfacet
facet normal -0.290291 0.956938 3.90353e-06
  outer loop
    vertex -0.1913410425186157 0.4619400501251221 -0.05000000074505806
    vertex -0.1913447082042694 0.4619385302066803 0.05000000074505806
    vertex -0.09754853695631027 0.4903919696807861 0.05000000074505806
  endloop
endfacet
facet normal -0.290283 0.956941 -4.28164e-06
  outer loop
    vertex -0.1913410425186157 0.4619400501251221 -0.05000000074505806
    vertex -0.09754853695631027 0.4903919696807861 0.05000000074505806
    vertex -0.09754440933465958 0.4903927743434906 -0.05000000074505806
  endloop
endfacet
facet normal -0.0980242 0.995184 3.96181e-06
  outer loop
    vertex -0.09754440933465958 0.4903927743434906 -0.05000000074505806
    vertex -0.09754853695631027 0.4903919696807861 0.05000000074505806
    vertex -3.639851684056339e-06 0.5 0.05000000074505806
  endloop
endfacet
facet normal -0.0980157 0.995185 -4.35438e-06
  outer loop
    vertex -0.09754440933465958 0.4903927743434906 -0.05000000074505806
    vertex -3.639851684056339e-06 0.5 0.05000000074505806
    vertex 8.026785280890181e-07 0.5 -0.05000000074505806
  endloop
endfacet
facet normal 0.0980096 0.995185 4.35411e-06
  outer loop
    vertex 8.026785280890181e-07 0.5 -0.05000000074505806
    vertex -3.639851684056339e-06 0.5 0.05000000074505806
    vertex 0.09754139930009842 0.4903934001922607 0.05000000074505806
  endloop
endfacet
facet normal 0.0980188 0.995185 -4.6956e-06
  outer loop
    vertex 8.026785280890181e-07 0.5 -0.05000000074505806
    vertex 0.09754139930009842 0.4903934001922607 0.05000000074505806
    vertex 0.09754598885774612 0.4903924763202667 -0.05000000074505806
  endloop
endfacet
facet normal 0.290277 0.956943 4.48152e-06
  outer loop
    vertex 0.09754598885774612 0.4903924763202667 -0.05000000074505806
    vertex 0.09754139930009842 0.4903934001922607 0.05000000074505806
    vertex 0.191337987780571 0.4619413018226624 0.05000000074505806
  endloop
endfacet
facet normal 0.290286 0.95694 -4.7739e-06
  outer loop
    vertex 0.09754598885774612 0.4903924763202667 -0.05000000074505806
    vertex 0.191337987780571 0.4619413018226624 0.05000000074505806
    vertex 0.1913425326347351 0.4619394242763519 -0.05000000074505806
  endloop
endfacet
facet normal 0.471389 0.881925 4.86541e-06
  outer loop
    vertex 0.1913425326347351 0.4619394242763519 -0.05000000074505806
    vertex 0.191337987780571 0.4619413018226624 0.05000000074505806
    vertex 0.27778160572052 0.4157371520996094 0.05000000074505806
  endloop
endfacet
facet normal 0.471398 0.88192 -5.00173e-06
  outer loop
    vertex 0.1913425326347351 0.4619394242763519 -0.05000000074505806
    vertex 0.27778160572052 0.4157371520996094 0.05000000074505806
    vertex 0.2777858972549438 0.4157342910766602 -0.05000000074505806
  endloop
endfacet
facet normal 0.634394 0.77301 9.50146e-07
  outer loop
    vertex 0.3535540699958801 0.3535526990890503 0.05000000074505806
    vertex 0.3535533845424652 0.3535533845424652 -0.05000000074505806
    vertex 0.2777858972549438 0.4157342910766602 -0.05000000074505806
  endloop
endfacet
facet normal 0.634391 0.773012 5.10904e-06
  outer loop
    vertex 0.3535540699958801 0.3535526990890503 0.05000000074505806
    vertex 0.2777858972549438 0.4157342910766602 -0.05000000074505806
    vertex 0.27778160572052 0.4157371520996094 0.05000000074505806
  endloop
endfacet
endsolid Created by Gmsh
