solid Created by Gmsh
facet normal -0.993006 -0.118068 -8.51724e-08
  outer loop
    vertex 2.86944842338562 4.097997188568115 -4.386538505554199
    vertex 2.999999761581421 3.000000238418579 -4.386538505554199
    vertex 2.999999046325684 2.999999761581421 4.613461971282959
  endloop
endfacet
facet normal -0.995887 -0.0905352 0.00340071
  outer loop
    vertex 2.86944842338562 4.097997188568115 -4.386538505554199
    vertex 2.999999046325684 2.999999761581421 4.613461971282959
    vertex 2.899999141693115 4.09999942779541 4.613461971282959
  endloop
endfacet
facet normal -0.499999 -0.866024 0.00188992
  outer loop
    vertex 2.114245414733887 4.534013748168945 -4.386538505554199
    vertex 2.86944842338562 4.097997188568115 -4.386538505554199
    vertex 2.899999141693115 4.09999942779541 4.613461971282959
  endloop
endfacet
facet normal -0.44721 -0.89442 -0.00408823
  outer loop
    vertex 2.114245414733887 4.534013748168945 -4.386538505554199
    vertex 2.899999141693115 4.09999942779541 4.613461971282959
    vertex 2.099999189376831 4.499999523162842 4.613461971282959
  endloop
endfacet
facet normal -0.342017 -0.939685 -0.00409279
  outer loop
    vertex 1.294802069664001 4.832266807556152 -4.386538505554199
    vertex 2.114245414733887 4.534013748168945 -4.386538505554199
    vertex 2.099999189376831 4.499999523162842 4.613461971282959
  endloop
endfacet
facet normal -0.351122 -0.936324 -0.00315418
  outer loop
    vertex 1.294802069664001 4.832266807556152 -4.386538505554199
    vertex 2.099999189376831 4.499999523162842 4.613461971282959
    vertex 1.299999237060547 4.799999713897705 4.613461017608643
  endloop
endfacet
facet normal -0.173648 -0.984802 -0.00343047
  outer loop
    vertex 0.4360171854496002 4.983694076538086 -4.386538505554199
    vertex 1.294802069664001 4.832266807556152 -4.386538505554199
    vertex 1.299999237060547 4.799999713897705 4.613461017608643
  endloop
endfacet
facet normal -0.21693 -0.976187 0.000900417
  outer loop
    vertex 0.4360171854496002 4.983694076538086 -4.386538505554199
    vertex 1.299999237060547 4.799999713897705 4.613461017608643
    vertex 0.3999991118907928 4.999999523162842 4.613461017608643
  endloop
endfacet
facet normal -9.90664e-10 -0.999998 0.00181171
  outer loop
    vertex -0.4360160231590271 4.983694076538086 -4.386538982391357
    vertex 0.4360171854496002 4.983694076538086 -4.386538505554199
    vertex 0.3999991118907928 4.999999523162842 4.613461017608643
  endloop
endfacet
facet normal 0 -0.999998 0.00181171
  outer loop
    vertex -0.4360160231590271 4.983694076538086 -4.386538982391357
    vertex 0.3999991118907928 4.999999523162842 4.613461017608643
    vertex -0.4000009000301361 4.999999523162842 4.613461017608643
  endloop
endfacet
facet normal 0.173648 -0.984807 0.00108931
  outer loop
    vertex -1.294801235198975 4.832266807556152 -4.386538982391357
    vertex -0.4360160231590271 4.983694076538086 -4.386538982391357
    vertex -0.4000009000301361 4.999999523162842 4.613461017608643
  endloop
endfacet
facet normal 0.216929 -0.976182 -0.00337451
  outer loop
    vertex -1.294801235198975 4.832266807556152 -4.386538982391357
    vertex -0.4000009000301361 4.999999523162842 4.613461017608643
    vertex -1.300000905990601 4.799999713897705 4.613461017608643
  endloop
endfacet
facet normal 0.342018 -0.939688 -0.0031714
  outer loop
    vertex -2.114244222640991 4.534014225006104 -4.386538982391357
    vertex -1.294801235198975 4.832266807556152 -4.386538982391357
    vertex -1.300000905990601 4.799999713897705 4.613461017608643
  endloop
endfacet
facet normal 0.351121 -0.936321 -0.00409442
  outer loop
    vertex -2.114244222640991 4.534014225006104 -4.386538982391357
    vertex -1.300000905990601 4.799999713897705 4.613461017608643
    vertex -2.100001096725464 4.499999523162842 4.613461017608643
  endloop
endfacet
facet normal 0.499996 -0.866018 -0.00406432
  outer loop
    vertex -2.869446992874146 4.097997665405273 -4.386538982391357
    vertex -2.114244222640991 4.534014225006104 -4.386538982391357
    vertex -2.100001096725464 4.499999523162842 4.613461017608643
  endloop
endfacet
facet normal 0.447213 -0.894426 0.00171718
  outer loop
    vertex -2.869446992874146 4.097997665405273 -4.386538982391357
    vertex -2.100001096725464 4.499999523162842 4.613461017608643
    vertex -2.900001049041748 4.09999942779541 4.613461017608643
  endloop
endfacet
facet normal 0.993 -0.118069 0.00339739
  outer loop
    vertex -3.000000238418579 2.999999761581421 -4.386538982391357
    vertex -2.869446992874146 4.097997665405273 -4.386538982391357
    vertex -2.900001049041748 4.09999942779541 4.613461017608643
  endloop
endfacet
facet normal 0.995893 -0.0905356 7.43497e-08
  outer loop
    vertex -3.000000238418579 2.999999761581421 -4.386538982391357
    vertex -2.900001049041748 4.09999942779541 4.613461017608643
    vertex -3.000000953674316 2.999999284744263 4.613461017608643
  endloop
endfacet
facet normal 0.118067 -0.993006 -4.32282e-08
  outer loop
    vertex -4.097995281219482 2.869449377059937 -4.386539459228516
    vertex -3.000000238418579 2.999999761581421 -4.386538982391357
    vertex -3.000000953674316 2.999999284744263 4.613461017608643
  endloop
endfacet
facet normal 0.0905351 -0.995887 0.00340066
  outer loop
    vertex -4.097995281219482 2.869449377059937 -4.386539459228516
    vertex -3.000000953674316 2.999999284744263 4.613461017608643
    vertex -4.100000858306885 2.899999380111694 4.613460063934326
  endloop
endfacet
facet normal 0.866024 -0.5 0.00189021
  outer loop
    vertex -4.534012317657471 2.114246845245361 -4.386539459228516
    vertex -4.097995281219482 2.869449377059937 -4.386539459228516
    vertex -4.100000858306885 2.899999380111694 4.613460063934326
  endloop
endfacet
facet normal 0.89442 -0.44721 -0.004088
  outer loop
    vertex -4.534012317657471 2.114246845245361 -4.386539459228516
    vertex -4.100000858306885 2.899999380111694 4.613460063934326
    vertex -4.500000953674316 2.09999942779541 4.613460063934326
  endloop
endfacet
facet normal 0.939685 -0.342017 -0.00409254
  outer loop
    vertex -4.832265377044678 1.294803619384766 -4.386539459228516
    vertex -4.534012317657471 2.114246845245361 -4.386539459228516
    vertex -4.500000953674316 2.09999942779541 4.613460063934326
  endloop
endfacet
facet normal 0.936324 -0.351122 -0.00315393
  outer loop
    vertex -4.832265377044678 1.294803619384766 -4.386539459228516
    vertex -4.500000953674316 2.09999942779541 4.613460063934326
    vertex -4.80000114440918 1.299999475479126 4.613460063934326
  endloop
endfacet
facet normal 0.984802 -0.173647 -0.00343018
  outer loop
    vertex -4.983692646026611 0.4360186159610748 -4.386539459228516
    vertex -4.832265377044678 1.294803619384766 -4.386539459228516
    vertex -4.80000114440918 1.299999475479126 4.613460063934326
  endloop
endfacet
facet normal 0.976187 -0.21693 0.0009007
  outer loop
    vertex -4.983692646026611 0.4360186159610748 -4.386539459228516
    vertex -4.80000114440918 1.299999475479126 4.613460063934326
    vertex -5.000000953674316 0.3999994099140167 4.613460063934326
  endloop
endfacet
facet normal 0.999998 -5.4681e-07 0.00181203
  outer loop
    vertex -4.98369312286377 -0.4360145628452301 -4.386539459228516
    vertex -4.983692646026611 0.4360186159610748 -4.386539459228516
    vertex -5.000000953674316 0.3999994099140167 4.613460063934326
  endloop
endfacet
facet normal 0.999998 0 0.00181198
  outer loop
    vertex -4.98369312286377 -0.4360145628452301 -4.386539459228516
    vertex -5.000000953674316 0.3999994099140167 4.613460063934326
    vertex -5.000000953674316 -0.4000006020069122 4.613460063934326
  endloop
endfacet
facet normal 0.984807 0.173648 0.00108959
  outer loop
    vertex -4.832266330718994 -1.2947998046875 -4.386539459228516
    vertex -4.98369312286377 -0.4360145628452301 -4.386539459228516
    vertex -5.000000953674316 -0.4000006020069122 4.613460063934326
  endloop
endfacet
facet normal 0.976182 0.216929 -0.00337427
  outer loop
    vertex -4.832266330718994 -1.2947998046875 -4.386539459228516
    vertex -5.000000953674316 -0.4000006020069122 4.613460063934326
    vertex -4.80000114440918 -1.300000667572021 4.613460063934326
  endloop
endfacet
facet normal 0.939688 0.342018 -0.00317116
  outer loop
    vertex -4.534013748168945 -2.114242792129517 -4.386539459228516
    vertex -4.832266330718994 -1.2947998046875 -4.386539459228516
    vertex -4.80000114440918 -1.300000667572021 4.613460063934326
  endloop
endfacet
facet normal 0.936321 0.351121 -0.00409417
  outer loop
    vertex -4.534013748168945 -2.114242792129517 -4.386539459228516
    vertex -4.80000114440918 -1.300000667572021 4.613460063934326
    vertex -4.500000953674316 -2.100000858306885 4.613460063934326
  endloop
endfacet
facet normal 0.866019 0.499995 -0.00406407
  outer loop
    vertex -4.097997665405273 -2.869446277618408 -4.386539459228516
    vertex -4.534013748168945 -2.114242792129517 -4.386539459228516
    vertex -4.500000953674316 -2.100000858306885 4.613460063934326
  endloop
endfacet
facet normal 0.894426 0.447213 0.00171734
  outer loop
    vertex -4.097997665405273 -2.869446277618408 -4.386539459228516
    vertex -4.500000953674316 -2.100000858306885 4.613460063934326
    vertex -4.100000858306885 -2.900000810623169 4.613460063934326
  endloop
endfacet
facet normal 0.118069 0.993 0.00339746
  outer loop
    vertex -2.999999761581421 -3.000000238418579 -4.386539459228516
    vertex -4.097997665405273 -2.869446277618408 -4.386539459228516
    vertex -4.100000858306885 -2.900000810623169 4.613460063934326
  endloop
endfacet
facet normal 0.0905356 0.995893 5.99594e-08
  outer loop
    vertex -2.999999761581421 -3.000000238418579 -4.386539459228516
    vertex -4.100000858306885 -2.900000810623169 4.613460063934326
    vertex -3.000000476837158 -3.000000715255737 4.613460063934326
  endloop
endfacet
facet normal 0.993006 0.118068 8.51725e-08
  outer loop
    vertex -2.869448661804199 -4.097995281219482 -4.386539459228516
    vertex -2.999999761581421 -3.000000238418579 -4.386539459228516
    vertex -3.000000476837158 -3.000000715255737 4.613460063934326
  endloop
endfacet
facet normal 0.995887 0.0905352 0.00340087
  outer loop
    vertex -2.869448661804199 -4.097995281219482 -4.386539459228516
    vertex -3.000000476837158 -3.000000715255737 4.613460063934326
    vertex -2.90000057220459 -4.100000381469727 4.613460063934326
  endloop
endfacet
facet normal 0.5 0.866024 0.00189027
  outer loop
    vertex -2.114246129989624 -4.534012317657471 -4.386539459228516
    vertex -2.869448661804199 -4.097995281219482 -4.386539459228516
    vertex -2.90000057220459 -4.100000381469727 4.613460063934326
  endloop
endfacet
facet normal 0.44721 0.89442 -0.00408796
  outer loop
    vertex -2.114246129989624 -4.534012317657471 -4.386539459228516
    vertex -2.90000057220459 -4.100000381469727 4.613460063934326
    vertex -2.100000619888306 -4.500000476837158 4.613460063934326
  endloop
endfacet
facet normal 0.342018 0.939685 -0.00409251
  outer loop
    vertex -1.294803261756897 -4.832265377044678 -4.386539459228516
    vertex -2.114246129989624 -4.534012317657471 -4.386539459228516
    vertex -2.100000619888306 -4.500000476837158 4.613460063934326
  endloop
endfacet
facet normal 0.351122 0.936324 -0.00315393
  outer loop
    vertex -1.294803261756897 -4.832265377044678 -4.386539459228516
    vertex -2.100000619888306 -4.500000476837158 4.613460063934326
    vertex -1.300000429153442 -4.800000667572021 4.613461017608643
  endloop
endfacet
facet normal 0.173648 0.984802 -0.00343021
  outer loop
    vertex -0.436018317937851 -4.98369312286377 -4.386539459228516
    vertex -1.294803261756897 -4.832265377044678 -4.386539459228516
    vertex -1.300000429153442 -4.800000667572021 4.613461017608643
  endloop
endfacet
facet normal 0.21693 0.976187 0.00090063
  outer loop
    vertex -0.436018317937851 -4.98369312286377 -4.386539459228516
    vertex -1.300000429153442 -4.800000667572021 4.613461017608643
    vertex -0.4000004827976227 -5.000000476837158 4.613461017608643
  endloop
endfacet
facet normal -9.9078e-10 0.999998 0.00181193
  outer loop
    vertex 0.436014860868454 -4.98369312286377 -4.386538982391357
    vertex -0.436018317937851 -4.98369312286377 -4.386539459228516
    vertex -0.4000004827976227 -5.000000476837158 4.613461017608643
  endloop
endfacet
facet normal 0 0.999998 0.00181193
  outer loop
    vertex 0.436014860868454 -4.98369312286377 -4.386538982391357
    vertex -0.4000004827976227 -5.000000476837158 4.613461017608643
    vertex 0.3999995291233063 -5.000000476837158 4.613461017608643
  endloop
endfacet
facet normal -0.173647 0.984807 0.00108951
  outer loop
    vertex 1.29479992389679 -4.832266807556152 -4.386538982391357
    vertex 0.436014860868454 -4.98369312286377 -4.386538982391357
    vertex 0.3999995291233063 -5.000000476837158 4.613461017608643
  endloop
endfacet
facet normal -0.216929 0.976182 -0.0033744
  outer loop
    vertex 1.29479992389679 -4.832266807556152 -4.386538982391357
    vertex 0.3999995291233063 -5.000000476837158 4.613461017608643
    vertex 1.299999713897705 -4.800000667572021 4.613461017608643
  endloop
endfacet
facet normal -0.342018 0.939688 -0.0031713
  outer loop
    vertex 2.114243507385254 -4.534014225006104 -4.386538982391357
    vertex 1.29479992389679 -4.832266807556152 -4.386538982391357
    vertex 1.299999713897705 -4.800000667572021 4.613461017608643
  endloop
endfacet
facet normal -0.351121 0.936321 -0.00409434
  outer loop
    vertex 2.114243507385254 -4.534014225006104 -4.386538982391357
    vertex 1.299999713897705 -4.800000667572021 4.613461017608643
    vertex 2.099999666213989 -4.500000476837158 4.613461017608643
  endloop
endfacet
facet normal -0.499995 0.866019 -0.00406427
  outer loop
    vertex 2.869446754455566 -4.097998142242432 -4.386538982391357
    vertex 2.114243507385254 -4.534014225006104 -4.386538982391357
    vertex 2.099999666213989 -4.500000476837158 4.613461017608643
  endloop
endfacet
facet normal -0.447213 0.894426 0.00171717
  outer loop
    vertex 2.869446754455566 -4.097998142242432 -4.386538982391357
    vertex 2.099999666213989 -4.500000476837158 4.613461017608643
    vertex 2.899999618530273 -4.100000381469727 4.613461017608643
  endloop
endfacet
facet normal -0.993 0.118069 0.00339726
  outer loop
    vertex 3.000000238418579 -2.999999761581421 -4.386538982391357
    vertex 2.869446754455566 -4.097998142242432 -4.386538982391357
    vertex 2.899999618530273 -4.100000381469727 4.613461017608643
  endloop
endfacet
facet normal -0.995893 0.0905356 -7.43497e-08
  outer loop
    vertex 3.000000238418579 -2.999999761581421 -4.386538982391357
    vertex 2.899999618530273 -4.100000381469727 4.613461017608643
    vertex 2.999999523162842 -3.000000238418579 4.613461017608643
  endloop
endfacet
facet normal -0.118066 0.993006 4.32283e-08
  outer loop
    vertex 4.097995281219482 -2.869450569152832 -4.386538505554199
    vertex 3.000000238418579 -2.999999761581421 -4.386538982391357
    vertex 2.999999523162842 -3.000000238418579 4.613461017608643
  endloop
endfacet
facet normal -0.0905352 0.995887 0.00340061
  outer loop
    vertex 4.097995281219482 -2.869450569152832 -4.386538505554199
    vertex 2.999999523162842 -3.000000238418579 4.613461017608643
    vertex 4.099998950958252 -2.900000333786011 4.613461971282959
  endloop
endfacet
facet normal -0.866023 0.5 0.00189001
  outer loop
    vertex 4.534012794494629 -2.114247798919678 -4.386538505554199
    vertex 4.097995281219482 -2.869450569152832 -4.386538505554199
    vertex 4.099998950958252 -2.900000333786011 4.613461971282959
  endloop
endfacet
facet normal -0.89442 0.44721 -0.00408824
  outer loop
    vertex 4.534012794494629 -2.114247798919678 -4.386538505554199
    vertex 4.099998950958252 -2.900000333786011 4.613461971282959
    vertex 4.499999046325684 -2.100000381469727 4.613461971282959
  endloop
endfacet
facet normal -0.939684 0.342018 -0.00409278
  outer loop
    vertex 4.832266330718994 -1.29480504989624 -4.386538505554199
    vertex 4.534012794494629 -2.114247798919678 -4.386538505554199
    vertex 4.499999046325684 -2.100000381469727 4.613461971282959
  endloop
endfacet
facet normal -0.936324 0.351122 -0.00315426
  outer loop
    vertex 4.832266330718994 -1.29480504989624 -4.386538505554199
    vertex 4.499999046325684 -2.100000381469727 4.613461971282959
    vertex 4.799999237060547 -1.300000190734863 4.613461971282959
  endloop
endfacet
facet normal -0.984802 0.173648 -0.00343051
  outer loop
    vertex 4.983694076538086 -0.4360199868679047 -4.386538505554199
    vertex 4.832266330718994 -1.29480504989624 -4.386538505554199
    vertex 4.799999237060547 -1.300000190734863 4.613461971282959
  endloop
endfacet
facet normal -0.976187 0.21693 0.000900324
  outer loop
    vertex 4.983694076538086 -0.4360199868679047 -4.386538505554199
    vertex 4.799999237060547 -1.300000190734863 4.613461971282959
    vertex 4.999999046325684 -0.4000001847743988 4.613461971282959
  endloop
endfacet
facet normal -0.999998 5.4681e-07 0.00181166
  outer loop
    vertex 4.983694553375244 0.4360131919384003 -4.386538505554199
    vertex 4.983694076538086 -0.4360199868679047 -4.386538505554199
    vertex 4.999999046325684 -0.4000001847743988 4.613461971282959
  endloop
endfacet
facet normal -0.999998 0 0.00181161
  outer loop
    vertex 4.983694553375244 0.4360131919384003 -4.386538505554199
    vertex 4.999999046325684 -0.4000001847743988 4.613461971282959
    vertex 4.999999046325684 0.3999998271465302 4.613461971282959
  endloop
endfacet
facet normal -0.984807 -0.173647 0.00108924
  outer loop
    vertex 4.832268238067627 1.294798374176025 -4.386538505554199
    vertex 4.983694553375244 0.4360131919384003 -4.386538505554199
    vertex 4.999999046325684 0.3999998271465302 4.613461971282959
  endloop
endfacet
facet normal -0.976182 -0.216929 -0.00337467
  outer loop
    vertex 4.832268238067627 1.294798374176025 -4.386538505554199
    vertex 4.999999046325684 0.3999998271465302 4.613461971282959
    vertex 4.799999237060547 1.299999952316284 4.613461971282959
  endloop
endfacet
facet normal -0.939688 -0.342017 -0.00317153
  outer loop
    vertex 4.534016132354736 2.1142418384552 -4.386538505554199
    vertex 4.832268238067627 1.294798374176025 -4.386538505554199
    vertex 4.799999237060547 1.299999952316284 4.613461971282959
  endloop
endfacet
facet normal -0.936321 -0.351121 -0.00409462
  outer loop
    vertex 4.534016132354736 2.1142418384552 -4.386538505554199
    vertex 4.799999237060547 1.299999952316284 4.613461971282959
    vertex 4.499999046325684 2.099999904632568 4.613461971282959
  endloop
endfacet
facet normal -0.866019 -0.499995 -0.00406448
  outer loop
    vertex 4.098000049591064 2.869445085525513 -4.386538505554199
    vertex 4.534016132354736 2.1142418384552 -4.386538505554199
    vertex 4.499999046325684 2.099999904632568 4.613461971282959
  endloop
endfacet
facet normal -0.894426 -0.447213 0.00171693
  outer loop
    vertex 4.098000049591064 2.869445085525513 -4.386538505554199
    vertex 4.499999046325684 2.099999904632568 4.613461971282959
    vertex 4.099998950958252 2.899999856948853 4.613461971282959
  endloop
endfacet
facet normal -0.11807 -0.992999 0.00339743
  outer loop
    vertex 2.999999761581421 3.000000238418579 -4.386538505554199
    vertex 4.098000049591064 2.869445085525513 -4.386538505554199
    vertex 4.099998950958252 2.899999856948853 4.613461971282959
  endloop
endfacet
facet normal -0.0905357 -0.995893 -5.99594e-08
  outer loop
    vertex 2.999999761581421 3.000000238418579 -4.386538505554199
    vertex 4.099998950958252 2.899999856948853 4.613461971282959
    vertex 2.999999046325684 2.999999761581421 4.613461971282959
  endloop
endfacet
facet normal -1.42055e-07 -1.68903e-08 1
  outer loop
    vertex 2.999999761581421 3.000000238418579 -4.386538505554199
    vertex 2.86944842338562 4.097997188568115 -4.386538505554199
    vertex 1.302700885735092e-15 -2.980232238769531e-08 -4.386538982391357
  endloop
endfacet
facet normal -4.78397e-08 -8.28609e-08 1
  outer loop
    vertex 2.86944842338562 4.097997188568115 -4.386538505554199
    vertex 2.114245414733887 4.534013748168945 -4.386538505554199
    vertex 1.302700885735092e-15 -2.980232238769531e-08 -4.386538982391357
  endloop
endfacet
facet normal -3.27243e-08 -8.99093e-08 1
  outer loop
    vertex 2.114245414733887 4.534013748168945 -4.386538505554199
    vertex 1.294802069664001 4.832266807556152 -4.386538505554199
    vertex 1.302700885735092e-15 -2.980232238769531e-08 -4.386538982391357
  endloop
endfacet
facet normal -1.66146e-08 -9.42259e-08 1
  outer loop
    vertex 1.294802069664001 4.832266807556152 -4.386538505554199
    vertex 0.4360171854496002 4.983694076538086 -4.386538505554199
    vertex 1.302700885735092e-15 -2.980232238769531e-08 -4.386538982391357
  endloop
endfacet
facet normal -5.46811e-07 -4.78397e-08 1
  outer loop
    vertex 0.4360171854496002 4.983694076538086 -4.386538505554199
    vertex -0.4360160231590271 4.983694076538086 -4.386538982391357
    vertex 1.302700885735092e-15 -2.980232238769531e-08 -4.386538982391357
  endloop
endfacet
facet normal 0 0 1
  outer loop
    vertex -0.4360160231590271 4.983694076538086 -4.386538982391357
    vertex -1.294801235198975 4.832266807556152 -4.386538982391357
    vertex 1.302700885735092e-15 -2.980232238769531e-08 -4.386538982391357
  endloop
endfacet
facet normal 0 0 1
  outer loop
    vertex -1.294801235198975 4.832266807556152 -4.386538982391357
    vertex -2.114244222640991 4.534014225006104 -4.386538982391357
    vertex 1.302700885735092e-15 -2.980232238769531e-08 -4.386538982391357
  endloop
endfacet
facet normal 0 0 1
  outer loop
    vertex -2.114244222640991 4.534014225006104 -4.386538982391357
    vertex -2.869446992874146 4.097997665405273 -4.386538982391357
    vertex 1.302700885735092e-15 -2.980232238769531e-08 -4.386538982391357
  endloop
endfacet
facet normal 0 0 1
  outer loop
    vertex -2.869446992874146 4.097997665405273 -4.386538982391357
    vertex -3.000000238418579 2.999999761581421 -4.386538982391357
    vertex 1.302700885735092e-15 -2.980232238769531e-08 -4.386538982391357
  endloop
endfacet
facet normal -3.88131e-07 -3.88132e-07 1
  outer loop
    vertex -3.000000238418579 2.999999761581421 -4.386538982391357
    vertex -4.097995281219482 2.869449377059937 -4.386539459228516
    vertex 1.302700885735092e-15 -2.980232238769531e-08 -4.386538982391357
  endloop
endfacet
facet normal -8.28608e-08 4.78398e-08 1
  outer loop
    vertex -4.097995281219482 2.869449377059937 -4.386539459228516
    vertex -4.534012317657471 2.114246845245361 -4.386539459228516
    vertex 1.302700885735092e-15 -2.980232238769531e-08 -4.386538982391357
  endloop
endfacet
facet normal -8.99093e-08 3.27243e-08 1
  outer loop
    vertex -4.534012317657471 2.114246845245361 -4.386539459228516
    vertex -4.832265377044678 1.294803619384766 -4.386539459228516
    vertex 1.302700885735092e-15 -2.980232238769531e-08 -4.386538982391357
  endloop
endfacet
facet normal -9.42259e-08 1.66146e-08 1
  outer loop
    vertex -4.832265377044678 1.294803619384766 -4.386539459228516
    vertex -4.983692646026611 0.4360186159610748 -4.386539459228516
    vertex 1.302700885735092e-15 -2.980232238769531e-08 -4.386538982391357
  endloop
endfacet
facet normal -9.56795e-08 5.23186e-14 1
  outer loop
    vertex -4.983692646026611 0.4360186159610748 -4.386539459228516
    vertex -4.98369312286377 -0.4360145628452301 -4.386539459228516
    vertex 1.302700885735092e-15 -2.980232238769531e-08 -4.386538982391357
  endloop
endfacet
facet normal -9.42259e-08 -1.66145e-08 1
  outer loop
    vertex -4.98369312286377 -0.4360145628452301 -4.386539459228516
    vertex -4.832266330718994 -1.2947998046875 -4.386539459228516
    vertex 1.302700885735092e-15 -2.980232238769531e-08 -4.386538982391357
  endloop
endfacet
facet normal -8.99093e-08 -3.27243e-08 1
  outer loop
    vertex -4.832266330718994 -1.2947998046875 -4.386539459228516
    vertex -4.534013748168945 -2.114242792129517 -4.386539459228516
    vertex 1.302700885735092e-15 -2.980232238769531e-08 -4.386538982391357
  endloop
endfacet
facet normal -8.28609e-08 -4.78397e-08 1
  outer loop
    vertex -4.534013748168945 -2.114242792129517 -4.386539459228516
    vertex -4.097997665405273 -2.869446277618408 -4.386539459228516
    vertex 1.302700885735092e-15 -2.980232238769531e-08 -4.386538982391357
  endloop
endfacet
facet normal -1.68906e-08 -1.42055e-07 1
  outer loop
    vertex -4.097997665405273 -2.869446277618408 -4.386539459228516
    vertex -2.999999761581421 -3.000000238418579 -4.386539459228516
    vertex 1.302700885735092e-15 -2.980232238769531e-08 -4.386538982391357
  endloop
endfacet
facet normal -1.42055e-07 -1.68903e-08 1
  outer loop
    vertex -2.999999761581421 -3.000000238418579 -4.386539459228516
    vertex -2.869448661804199 -4.097995281219482 -4.386539459228516
    vertex 1.302700885735092e-15 -2.980232238769531e-08 -4.386538982391357
  endloop
endfacet
facet normal -4.78398e-08 -8.28608e-08 1
  outer loop
    vertex -2.869448661804199 -4.097995281219482 -4.386539459228516
    vertex -2.114246129989624 -4.534012317657471 -4.386539459228516
    vertex 1.302700885735092e-15 -2.980232238769531e-08 -4.386538982391357
  endloop
endfacet
facet normal -3.27243e-08 -8.99093e-08 1
  outer loop
    vertex -2.114246129989624 -4.534012317657471 -4.386539459228516
    vertex -1.294803261756897 -4.832265377044678 -4.386539459228516
    vertex 1.302700885735092e-15 -2.980232238769531e-08 -4.386538982391357
  endloop
endfacet
facet normal -1.66147e-08 -9.42259e-08 1
  outer loop
    vertex -1.294803261756897 -4.832265377044678 -4.386539459228516
    vertex -0.436018317937851 -4.98369312286377 -4.386539459228516
    vertex 1.302700885735092e-15 -2.980232238769531e-08 -4.386538982391357
  endloop
endfacet
facet normal -5.46811e-07 -4.78395e-08 1
  outer loop
    vertex -0.436018317937851 -4.98369312286377 -4.386539459228516
    vertex 0.436014860868454 -4.98369312286377 -4.386538982391357
    vertex 1.302700885735092e-15 -2.980232238769531e-08 -4.386538982391357
  endloop
endfacet
facet normal 0 -0 1
  outer loop
    vertex 0.436014860868454 -4.98369312286377 -4.386538982391357
    vertex 1.29479992389679 -4.832266807556152 -4.386538982391357
    vertex 1.302700885735092e-15 -2.980232238769531e-08 -4.386538982391357
  endloop
endfacet
facet normal 0 -0 1
  outer loop
    vertex 1.29479992389679 -4.832266807556152 -4.386538982391357
    vertex 2.114243507385254 -4.534014225006104 -4.386538982391357
    vertex 1.302700885735092e-15 -2.980232238769531e-08 -4.386538982391357
  endloop
endfacet
facet normal 0 -0 1
  outer loop
    vertex 2.114243507385254 -4.534014225006104 -4.386538982391357
    vertex 2.869446754455566 -4.097998142242432 -4.386538982391357
    vertex 1.302700885735092e-15 -2.980232238769531e-08 -4.386538982391357
  endloop
endfacet
facet normal 0 -0 1
  outer loop
    vertex 2.869446754455566 -4.097998142242432 -4.386538982391357
    vertex 3.000000238418579 -2.999999761581421 -4.386538982391357
    vertex 1.302700885735092e-15 -2.980232238769531e-08 -4.386538982391357
  endloop
endfacet
facet normal -3.88132e-07 -3.88132e-07 1
  outer loop
    vertex 3.000000238418579 -2.999999761581421 -4.386538982391357
    vertex 4.097995281219482 -2.869450569152832 -4.386538505554199
    vertex 1.302700885735092e-15 -2.980232238769531e-08 -4.386538982391357
  endloop
endfacet
facet normal -8.28608e-08 4.78398e-08 1
  outer loop
    vertex 4.097995281219482 -2.869450569152832 -4.386538505554199
    vertex 4.534012794494629 -2.114247798919678 -4.386538505554199
    vertex 1.302700885735092e-15 -2.980232238769531e-08 -4.386538982391357
  endloop
endfacet
facet normal -8.99093e-08 3.27244e-08 1
  outer loop
    vertex 4.534012794494629 -2.114247798919678 -4.386538505554199
    vertex 4.832266330718994 -1.29480504989624 -4.386538505554199
    vertex 1.302700885735092e-15 -2.980232238769531e-08 -4.386538982391357
  endloop
endfacet
facet normal -9.42259e-08 1.66146e-08 1
  outer loop
    vertex 4.832266330718994 -1.29480504989624 -4.386538505554199
    vertex 4.983694076538086 -0.4360199868679047 -4.386538505554199
    vertex 1.302700885735092e-15 -2.980232238769531e-08 -4.386538982391357
  endloop
endfacet
facet normal -9.56795e-08 5.23186e-14 1
  outer loop
    vertex 4.983694076538086 -0.4360199868679047 -4.386538505554199
    vertex 4.983694553375244 0.4360131919384003 -4.386538505554199
    vertex 1.302700885735092e-15 -2.980232238769531e-08 -4.386538982391357
  endloop
endfacet
facet normal -9.42259e-08 -1.66145e-08 1
  outer loop
    vertex 4.983694553375244 0.4360131919384003 -4.386538505554199
    vertex 4.832268238067627 1.294798374176025 -4.386538505554199
    vertex 1.302700885735092e-15 -2.980232238769531e-08 -4.386538982391357
  endloop
endfacet
facet normal -8.99093e-08 -3.27242e-08 1
  outer loop
    vertex 4.832268238067627 1.294798374176025 -4.386538505554199
    vertex 4.534016132354736 2.1142418384552 -4.386538505554199
    vertex 1.302700885735092e-15 -2.980232238769531e-08 -4.386538982391357
  endloop
endfacet
facet normal -8.28609e-08 -4.78397e-08 1
  outer loop
    vertex 4.534016132354736 2.1142418384552 -4.386538505554199
    vertex 4.098000049591064 2.869445085525513 -4.386538505554199
    vertex 1.302700885735092e-15 -2.980232238769531e-08 -4.386538982391357
  endloop
endfacet
facet normal -1.68907e-08 -1.42055e-07 1
  outer loop
    vertex 4.098000049591064 2.869445085525513 -4.386538505554199
    vertex 2.999999761581421 3.000000238418579 -4.386538505554199
    vertex 1.302700885735092e-15 -2.980232238769531e-08 -4.386538982391357
  endloop
endfacet
facet normal 2.91401e-07 2.64909e-08 -1
  outer loop
    vertex 2.899999141693115 4.09999942779541 4.613461971282959
    vertex 2.999999046325684 2.999999761581421 4.613461971282959
    vertex -6.437064712372376e-07 -3.934025301077781e-07 4.613461017608643
  endloop
endfacet
facet normal 8.59166e-08 1.71833e-07 -1
  outer loop
    vertex 2.099999189376831 4.499999523162842 4.613461971282959
    vertex 2.899999141693115 4.09999942779541 4.613461971282959
    vertex -6.437064712372376e-07 -3.934025301077781e-07 4.613461017608643
  endloop
endfacet
facet normal 1.08218e-06 -2.93091e-07 -1
  outer loop
    vertex 1.299999237060547 4.799999713897705 4.613461017608643
    vertex 2.099999189376831 4.499999523162842 4.613461971282959
    vertex -6.437064712372376e-07 -3.934025301077781e-07 4.613461017608643
  endloop
endfacet
facet normal 0 -0 -1
  outer loop
    vertex 0.3999991118907928 4.999999523162842 4.613461017608643
    vertex 1.299999237060547 4.799999713897705 4.613461017608643
    vertex -6.437064712372376e-07 -3.934025301077781e-07 4.613461017608643
  endloop
endfacet
facet normal 0 0 -1
  outer loop
    vertex -0.4000009000301361 4.999999523162842 4.613461017608643
    vertex 0.3999991118907928 4.999999523162842 4.613461017608643
    vertex -6.437064712372376e-07 -3.934025301077781e-07 4.613461017608643
  endloop
endfacet
facet normal 0 0 -1
  outer loop
    vertex -1.300000905990601 4.799999713897705 4.613461017608643
    vertex -0.4000009000301361 4.999999523162842 4.613461017608643
    vertex -6.437064712372376e-07 -3.934025301077781e-07 4.613461017608643
  endloop
endfacet
facet normal 0 0 -1
  outer loop
    vertex -2.100001096725464 4.499999523162842 4.613461017608643
    vertex -1.300000905990601 4.799999713897705 4.613461017608643
    vertex -6.437064712372376e-07 -3.934025301077781e-07 4.613461017608643
  endloop
endfacet
facet normal 0 0 -1
  outer loop
    vertex -2.900001049041748 4.09999942779541 4.613461017608643
    vertex -2.100001096725464 4.499999523162842 4.613461017608643
    vertex -6.437064712372376e-07 -3.934025301077781e-07 4.613461017608643
  endloop
endfacet
facet normal 0 0 -1
  outer loop
    vertex -3.000000953674316 2.999999284744263 4.613461017608643
    vertex -2.900001049041748 4.09999942779541 4.613461017608643
    vertex -6.437064712372376e-07 -3.934025301077781e-07 4.613461017608643
  endloop
endfacet
facet normal 7.94729e-07 7.94729e-07 -1
  outer loop
    vertex -4.100000858306885 2.899999380111694 4.613460063934326
    vertex -3.000000953674316 2.999999284744263 4.613461017608643
    vertex -6.437064712372376e-07 -3.934025301077781e-07 4.613461017608643
  endloop
endfacet
facet normal 1.71833e-07 -8.59166e-08 -1
  outer loop
    vertex -4.500000953674316 2.09999942779541 4.613460063934326
    vertex -4.100000858306885 2.899999380111694 4.613460063934326
    vertex -6.437064712372376e-07 -3.934025301077781e-07 4.613461017608643
  endloop
endfacet
facet normal 1.80364e-07 -6.76365e-08 -1
  outer loop
    vertex -4.80000114440918 1.299999475479126 4.613460063934326
    vertex -4.500000953674316 2.09999942779541 4.613460063934326
    vertex -6.437064712372376e-07 -3.934025301077781e-07 4.613461017608643
  endloop
endfacet
facet normal 1.87403e-07 -4.16451e-08 -1
  outer loop
    vertex -5.000000953674316 0.3999994099140167 4.613460063934326
    vertex -4.80000114440918 1.299999475479126 4.613460063934326
    vertex -6.437064712372376e-07 -3.934025301077781e-07 4.613461017608643
  endloop
endfacet
facet normal 1.90735e-07 0 -1
  outer loop
    vertex -5.000000953674316 -0.4000006020069122 4.613460063934326
    vertex -5.000000953674316 0.3999994099140167 4.613460063934326
    vertex -6.437064712372376e-07 -3.934025301077781e-07 4.613461017608643
  endloop
endfacet
facet normal 1.87403e-07 4.16451e-08 -1
  outer loop
    vertex -4.80000114440918 -1.300000667572021 4.613460063934326
    vertex -5.000000953674316 -0.4000006020069122 4.613460063934326
    vertex -6.437064712372376e-07 -3.934025301077781e-07 4.613461017608643
  endloop
endfacet
facet normal 1.80364e-07 6.76365e-08 -1
  outer loop
    vertex -4.500000953674316 -2.100000858306885 4.613460063934326
    vertex -4.80000114440918 -1.300000667572021 4.613460063934326
    vertex -6.437064712372376e-07 -3.934025301077781e-07 4.613461017608643
  endloop
endfacet
facet normal 1.71833e-07 8.59166e-08 -1
  outer loop
    vertex -4.100000858306885 -2.900000810623169 4.613460063934326
    vertex -4.500000953674316 -2.100000858306885 4.613460063934326
    vertex -6.437064712372376e-07 -3.934025301077781e-07 4.613461017608643
  endloop
endfacet
facet normal 2.64909e-08 2.914e-07 -1
  outer loop
    vertex -3.000000476837158 -3.000000715255737 4.613460063934326
    vertex -4.100000858306885 -2.900000810623169 4.613460063934326
    vertex -6.437064712372376e-07 -3.934025301077781e-07 4.613461017608643
  endloop
endfacet
facet normal 2.91401e-07 2.64909e-08 -1
  outer loop
    vertex -2.90000057220459 -4.100000381469727 4.613460063934326
    vertex -3.000000476837158 -3.000000715255737 4.613460063934326
    vertex -6.437064712372376e-07 -3.934025301077781e-07 4.613461017608643
  endloop
endfacet
facet normal 8.59166e-08 1.71833e-07 -1
  outer loop
    vertex -2.100000619888306 -4.500000476837158 4.613460063934326
    vertex -2.90000057220459 -4.100000381469727 4.613460063934326
    vertex -6.437064712372376e-07 -3.934025301077781e-07 4.613461017608643
  endloop
endfacet
facet normal 1.08218e-06 -2.93091e-07 -1
  outer loop
    vertex -1.300000429153442 -4.800000667572021 4.613461017608643
    vertex -2.100000619888306 -4.500000476837158 4.613460063934326
    vertex -6.437064712372376e-07 -3.934025301077781e-07 4.613461017608643
  endloop
endfacet
facet normal 0 0 -1
  outer loop
    vertex -0.4000004827976227 -5.000000476837158 4.613461017608643
    vertex -1.300000429153442 -4.800000667572021 4.613461017608643
    vertex -6.437064712372376e-07 -3.934025301077781e-07 4.613461017608643
  endloop
endfacet
facet normal 0 0 -1
  outer loop
    vertex 0.3999995291233063 -5.000000476837158 4.613461017608643
    vertex -0.4000004827976227 -5.000000476837158 4.613461017608643
    vertex -6.437064712372376e-07 -3.934025301077781e-07 4.613461017608643
  endloop
endfacet
facet normal -0 0 -1
  outer loop
    vertex 1.299999713897705 -4.800000667572021 4.613461017608643
    vertex 0.3999995291233063 -5.000000476837158 4.613461017608643
    vertex -6.437064712372376e-07 -3.934025301077781e-07 4.613461017608643
  endloop
endfacet
facet normal -0 0 -1
  outer loop
    vertex 2.099999666213989 -4.500000476837158 4.613461017608643
    vertex 1.299999713897705 -4.800000667572021 4.613461017608643
    vertex -6.437064712372376e-07 -3.934025301077781e-07 4.613461017608643
  endloop
endfacet
facet normal -0 0 -1
  outer loop
    vertex 2.899999618530273 -4.100000381469727 4.613461017608643
    vertex 2.099999666213989 -4.500000476837158 4.613461017608643
    vertex -6.437064712372376e-07 -3.934025301077781e-07 4.613461017608643
  endloop
endfacet
facet normal -0 0 -1
  outer loop
    vertex 2.999999523162842 -3.000000238418579 4.613461017608643
    vertex 2.899999618530273 -4.100000381469727 4.613461017608643
    vertex -6.437064712372376e-07 -3.934025301077781e-07 4.613461017608643
  endloop
endfacet
facet normal 7.94729e-07 7.94729e-07 -1
  outer loop
    vertex 4.099998950958252 -2.900000333786011 4.613461971282959
    vertex 2.999999523162842 -3.000000238418579 4.613461017608643
    vertex -6.437064712372376e-07 -3.934025301077781e-07 4.613461017608643
  endloop
endfacet
facet normal 1.71833e-07 -8.59166e-08 -1
  outer loop
    vertex 4.499999046325684 -2.100000381469727 4.613461971282959
    vertex 4.099998950958252 -2.900000333786011 4.613461971282959
    vertex -6.437064712372376e-07 -3.934025301077781e-07 4.613461017608643
  endloop
endfacet
facet normal 1.80364e-07 -6.76365e-08 -1
  outer loop
    vertex 4.799999237060547 -1.300000190734863 4.613461971282959
    vertex 4.499999046325684 -2.100000381469727 4.613461971282959
    vertex -6.437064712372376e-07 -3.934025301077781e-07 4.613461017608643
  endloop
endfacet
facet normal 1.87403e-07 -4.16451e-08 -1
  outer loop
    vertex 4.999999046325684 -0.4000001847743988 4.613461971282959
    vertex 4.799999237060547 -1.300000190734863 4.613461971282959
    vertex -6.437064712372376e-07 -3.934025301077781e-07 4.613461017608643
  endloop
endfacet
facet normal 1.90735e-07 0 -1
  outer loop
    vertex 4.999999046325684 0.3999998271465302 4.613461971282959
    vertex 4.999999046325684 -0.4000001847743988 4.613461971282959
    vertex -6.437064712372376e-07 -3.934025301077781e-07 4.613461017608643
  endloop
endfacet
facet normal 1.87403e-07 4.16451e-08 -1
  outer loop
    vertex 4.799999237060547 1.299999952316284 4.613461971282959
    vertex 4.999999046325684 0.3999998271465302 4.613461971282959
    vertex -6.437064712372376e-07 -3.934025301077781e-07 4.613461017608643
  endloop
endfacet
facet normal 1.80364e-07 6.76365e-08 -1
  outer loop
    vertex 4.499999046325684 2.099999904632568 4.613461971282959
    vertex 4.799999237060547 1.299999952316284 4.613461971282959
    vertex -6.437064712372376e-07 -3.934025301077781e-07 4.613461017608643
  endloop
endfacet
facet normal 1.71833e-07 8.59166e-08 -1
  outer loop
    vertex 4.099998950958252 2.899999856948853 4.613461971282959
    vertex 4.499999046325684 2.099999904632568 4.613461971282959
    vertex -6.437064712372376e-07 -3.934025301077781e-07 4.613461017608643
  endloop
endfacet
facet normal 2.64909e-08 2.914e-07 -1
  outer loop
    vertex 2.999999046325684 2.999999761581421 4.613461971282959
    vertex 4.099998950958252 2.899999856948853 4.613461971282959
    vertex -6.437064712372376e-07 -3.934025301077781e-07 4.613461017608643
  endloop
endfacet
endsolid Created by Gmsh
