solid Created by Gmsh
facet normal 0 -0 -1
  outer loop
    vertex 0.1000000014901161 0.5039294958114624 -0.1000000014901161
    vertex 0.1000000014901161 0.003929495811462402 -0.1000000014901161
    vertex -0.1000000163912773 0.003929540514945984 -0.1000000014901161
  endloop
endfacet
facet normal -0 0 -1
  outer loop
    vertex 0.1000000014901161 0.5039294958114624 -0.1000000014901161
    vertex -0.1000000163912773 0.003929540514945984 -0.1000000014901161
    vertex -0.09999996423721313 0.503929615020752 -0.1000000014901161
  endloop
endfacet
facet normal 0 0 1
  outer loop
    vertex 0.1000000461935997 0.5039293766021729 0.1000000014901161
    vertex -0.09999999403953552 0.5039294958114624 0.1000000014901161
    vertex -0.1000000387430191 0.003929585218429565 0.1000000014901161
  endloop
endfacet
facet normal 0 0 1
  outer loop
    vertex 0.1000000461935997 0.5039293766021729 0.1000000014901161
    vertex -0.1000000387430191 0.003929585218429565 0.1000000014901161
    vertex 0.09999993443489075 0.003929346799850464 0.1000000014901161
  endloop
endfacet
facet normal 1 -2.23517e-07 -2.23518e-07
  outer loop
    vertex 0.1000000014901161 0.5039294958114624 -0.1000000014901161
    vertex 0.1000000461935997 0.5039293766021729 0.1000000014901161
    vertex 0.09999993443489075 0.003929346799850464 0.1000000014901161
  endloop
endfacet
facet normal 1 0 3.35276e-07
  outer loop
    vertex 0.1000000014901161 0.5039294958114624 -0.1000000014901161
    vertex 0.09999993443489075 0.003929346799850464 0.1000000014901161
    vertex 0.1000000014901161 0.003929495811462402 -0.1000000014901161
  endloop
endfacet
facet normal -1.19209e-06 -1 -7.45058e-07
  outer loop
    vertex 0.1000000014901161 0.003929495811462402 -0.1000000014901161
    vertex 0.09999993443489075 0.003929346799850464 0.1000000014901161
    vertex -0.1000000387430191 0.003929585218429565 0.1000000014901161
  endloop
endfacet
facet normal -2.23517e-07 -1 2.23517e-07
  outer loop
    vertex 0.1000000014901161 0.003929495811462402 -0.1000000014901161
    vertex -0.1000000387430191 0.003929585218429565 0.1000000014901161
    vertex -0.1000000163912773 0.003929540514945984 -0.1000000014901161
  endloop
endfacet
facet normal -1 8.9407e-08 -1.11759e-07
  outer loop
    vertex -0.1000000163912773 0.003929540514945984 -0.1000000014901161
    vertex -0.1000000387430191 0.003929585218429565 0.1000000014901161
    vertex -0.09999999403953552 0.5039294958114624 0.1000000014901161
  endloop
endfacet
facet normal -1 1.04308e-07 -1.49012e-07
  outer loop
    vertex -0.1000000163912773 0.003929540514945984 -0.1000000014901161
    vertex -0.09999999403953552 0.5039294958114624 0.1000000014901161
    vertex -0.09999996423721313 0.503929615020752 -0.1000000014901161
  endloop
endfacet
facet normal 5.96047e-07 1 5.96046e-07
  outer loop
    vertex 0.1000000461935997 0.5039293766021729 0.1000000014901161
    vertex 0.1000000014901161 0.5039294958114624 -0.1000000014901161
    vertex -0.09999996423721313 0.503929615020752 -0.1000000014901161
  endloop
endfacet
facet normal 5.96046e-07 1 5.96047e-07
  outer loop
    vertex 0.1000000461935997 0.5039293766021729 0.1000000014901161
    vertex -0.09999996423721313 0.503929615020752 -0.1000000014901161
    vertex -0.09999999403953552 0.5039294958114624 0.1000000014901161
  endloop
endfacet
endsolid Created by Gmsh
