<?xml version="1.0" encoding="UTF-8" standalone="no"?>
<!-- Created with Inkscape (http://www.inkscape.org/) -->

<svg
   xmlns:dc="http://purl.org/dc/elements/1.1/"
   xmlns:cc="http://creativecommons.org/ns#"
   xmlns:rdf="http://www.w3.org/1999/02/22-rdf-syntax-ns#"
   xmlns:svg="http://www.w3.org/2000/svg"
   xmlns="http://www.w3.org/2000/svg"
   xmlns:sodipodi="http://sodipodi.sourceforge.net/DTD/sodipodi-0.dtd"
   xmlns:inkscape="http://www.inkscape.org/namespaces/inkscape"
   width="136.7338mm"
   height="72.29715mm"
   viewBox="0 0 484.48983 256.171"
   id="svg14339"
   version="1.1"
   inkscape:version="0.91 r13725"
   sodipodi:docname="schema0.svg">
  <defs
     id="defs14341" />
  <sodipodi:namedview
     id="base"
     pagecolor="#ffffff"
     bordercolor="#666666"
     borderopacity="1.0"
     inkscape:pageopacity="0.0"
     inkscape:pageshadow="2"
     inkscape:zoom="1.4"
     inkscape:cx="353.30246"
     inkscape:cy="213.99689"
     inkscape:document-units="px"
     inkscape:current-layer="layer1"
     showgrid="false"
     fit-margin-top="0"
     fit-margin-left="0"
     fit-margin-right="0"
     fit-margin-bottom="0"
     inkscape:window-width="1920"
     inkscape:window-height="1030"
     inkscape:window-x="0"
     inkscape:window-y="0"
     inkscape:window-maximized="1" />
  <metadata
     id="metadata14344">
    <rdf:RDF>
      <cc:Work
         rdf:about="">
        <dc:format>image/svg+xml</dc:format>
        <dc:type
           rdf:resource="http://purl.org/dc/dcmitype/StillImage" />
        <dc:title></dc:title>
      </cc:Work>
    </rdf:RDF>
  </metadata>
  <g
     inkscape:label="Layer 1"
     inkscape:groupmode="layer"
     id="layer1"
     transform="translate(779.38775,24.294718)">
    <g
       id="g14049"
       transform="translate(-5551.8219,879.78942)">
      <path
         transform="matrix(0.05661397,-0.99839614,0.99839614,0.05661397,0,0)"
         d="m 1073.1393,4975.3169 a 30,30 0 0 1 -29.9948,30 30,30 0 0 1 -30.0052,-29.9895 30,30 0 0 1 29.9842,-30.0105 30,30 0 0 1 30.0158,29.979"
         sodipodi:open="true"
         sodipodi:end="6.2824853"
         sodipodi:start="0"
         sodipodi:ry="30"
         sodipodi:rx="30"
         sodipodi:cy="4975.3169"
         sodipodi:cx="1043.1393"
         sodipodi:type="arc"
         id="path3338-4-1-0-8-8"
         style="fill:#5fa78d;fill-opacity:1;stroke:#000000;stroke-width:1.50600004;stroke-miterlimit:1.79999995;stroke-dasharray:none;stroke-dashoffset:0;stroke-opacity:1" />
      <path
         transform="matrix(0.05661397,-0.99839614,0.99839614,0.05661397,0,0)"
         d="m 1129.5011,4999.5073 a 30,30 0 0 1 -29.9948,30 30,30 0 0 1 -30.0052,-29.9895 30,30 0 0 1 29.9842,-30.0105 30,30 0 0 1 30.0158,29.979"
         sodipodi:open="true"
         sodipodi:end="6.2824853"
         sodipodi:start="0"
         sodipodi:ry="30"
         sodipodi:rx="30"
         sodipodi:cy="4999.5073"
         sodipodi:cx="1099.5011"
         sodipodi:type="arc"
         id="path3338-8-6-4-5-3-8"
         style="fill:#5fa78d;fill-opacity:1;stroke:#000000;stroke-width:1.50600004;stroke-miterlimit:1.79999995;stroke-dasharray:none;stroke-dashoffset:0;stroke-opacity:1" />
      <path
         transform="matrix(0.05661397,-0.99839614,0.99839614,0.05661397,0,0)"
         d="m 1062.6158,5047.3608 a 30,30 0 0 1 -29.9947,30 30,30 0 0 1 -30.0053,-29.9895 30,30 0 0 1 29.9843,-30.0105 30,30 0 0 1 30.0157,29.979"
         sodipodi:open="true"
         sodipodi:end="6.2824853"
         sodipodi:start="0"
         sodipodi:ry="30"
         sodipodi:rx="30"
         sodipodi:cy="5047.3608"
         sodipodi:cx="1032.6158"
         sodipodi:type="arc"
         id="path3338-2-74-9-0-5-8"
         style="fill:#5fa78d;fill-opacity:1;stroke:#000000;stroke-width:1.50600004;stroke-miterlimit:1.79999995;stroke-dasharray:none;stroke-dashoffset:0;stroke-opacity:1" />
      <path
         transform="matrix(0.05661397,-0.99839614,0.99839614,0.05661397,0,0)"
         d="m 1120.5116,5060.6353 a 30,30 0 0 1 -29.9948,30 30,30 0 0 1 -30.0052,-29.9895 30,30 0 0 1 29.9842,-30.0105 30,30 0 0 1 30.0158,29.979"
         sodipodi:open="true"
         sodipodi:end="6.2824853"
         sodipodi:start="0"
         sodipodi:ry="30"
         sodipodi:rx="30"
         sodipodi:cy="5060.6353"
         sodipodi:cx="1090.5116"
         sodipodi:type="arc"
         id="path3338-3-5-2-2-6-6"
         style="fill:#5fa78d;fill-opacity:1;stroke:#000000;stroke-width:1.50600004;stroke-miterlimit:1.79999995;stroke-dasharray:none;stroke-dashoffset:0;stroke-opacity:1" />
      <path
         transform="matrix(0.05661397,-0.99839614,0.99839614,0.05661397,0,0)"
         d="m 1020.1158,5004.5039 a 30,30 0 0 1 -29.99471,30 30,30 0 0 1 -30.00524,-29.9895 30,30 0 0 1 29.98424,-30.0105 30,30 0 0 1 30.01571,29.979"
         sodipodi:open="true"
         sodipodi:end="6.2824853"
         sodipodi:start="0"
         sodipodi:ry="30"
         sodipodi:rx="30"
         sodipodi:cy="5004.5039"
         sodipodi:cx="990.11584"
         sodipodi:type="arc"
         id="path3338-2-7-4-0-9-5-8"
         style="fill:#5fa78d;fill-opacity:1;stroke:#000000;stroke-width:1.50600004;stroke-miterlimit:1.79999995;stroke-dasharray:none;stroke-dashoffset:0;stroke-opacity:1" />
      <path
         transform="matrix(0.05661397,-0.99839614,0.99839614,0.05661397,0,0)"
         d="m 1025.2294,5114.5518 a 30,30 0 0 1 -29.99478,30 30,30 0 0 1 -30.00525,-29.9895 30,30 0 0 1 29.98425,-30.0105 30,30 0 0 1 30.01578,29.979"
         sodipodi:open="true"
         sodipodi:end="6.2824853"
         sodipodi:start="0"
         sodipodi:ry="30"
         sodipodi:rx="30"
         sodipodi:cy="5114.5518"
         sodipodi:cx="995.22937"
         sodipodi:type="arc"
         id="path3338-2-7-0-0-6-4-9-3"
         style="fill:#5fa78d;fill-opacity:1;stroke:#000000;stroke-width:1.50600004;stroke-miterlimit:1.79999995;stroke-dasharray:none;stroke-dashoffset:0;stroke-opacity:1" />
      <path
         transform="matrix(0.05661397,-0.99839614,0.99839614,0.05661397,0,0)"
         d="m 1086.5375,5115.2661 a 30,30 0 0 1 -29.9948,30 30,30 0 0 1 -30.0052,-29.9895 30,30 0 0 1 29.9842,-30.0105 30,30 0 0 1 30.0158,29.979"
         sodipodi:open="true"
         sodipodi:end="6.2824853"
         sodipodi:start="0"
         sodipodi:ry="30"
         sodipodi:rx="30"
         sodipodi:cy="5115.2661"
         sodipodi:cx="1056.5375"
         sodipodi:type="arc"
         id="path3338-2-7-2-6-8-3-9-8"
         style="fill:#5fa78d;fill-opacity:1;stroke:#000000;stroke-width:1.50600004;stroke-miterlimit:1.79999995;stroke-dasharray:none;stroke-dashoffset:0;stroke-opacity:1" />
      <path
         transform="matrix(0.05661397,-0.99839614,0.99839614,0.05661397,0,0)"
         d="m 1147.1442,5115.9492 a 30,30 0 0 1 -29.9948,30 30,30 0 0 1 -30.0052,-29.9895 30,30 0 0 1 29.9842,-30.0105 30,30 0 0 1 30.0158,29.979"
         sodipodi:open="true"
         sodipodi:end="6.2824853"
         sodipodi:start="0"
         sodipodi:ry="30"
         sodipodi:rx="30"
         sodipodi:cy="5115.9492"
         sodipodi:cx="1117.1442"
         sodipodi:type="arc"
         id="path3338-2-7-1-4-9-5-0-3"
         style="fill:#5fa78d;fill-opacity:1;stroke:#000000;stroke-width:1.50600004;stroke-miterlimit:1.79999995;stroke-dasharray:none;stroke-dashoffset:0;stroke-opacity:1" />
      <path
         inkscape:connector-curvature="0"
         id="path5193-8-1-7-3"
         d="m 4791.5669,-671.83498 465.3571,0"
         style="fill:none;fill-rule:evenodd;stroke:#0508f2;stroke-width:4.5079999;stroke-linecap:butt;stroke-linejoin:miter;stroke-miterlimit:4;stroke-dasharray:none;stroke-opacity:1" />
      <path
         d="m 4948.6377,-845.50537 a 30,30 0 0 1 -29.9948,30 30,30 0 0 1 -30.0052,-29.9895 30,30 0 0 1 29.9842,-30.0105 30,30 0 0 1 30.0158,29.979"
         sodipodi:open="true"
         sodipodi:end="6.2824853"
         sodipodi:start="0"
         sodipodi:ry="30"
         sodipodi:rx="30"
         sodipodi:cy="-845.50537"
         sodipodi:cx="4918.6377"
         sodipodi:type="arc"
         id="path3338-4-8-7-6-3"
         style="fill:#ff0000;fill-opacity:1;stroke:#000000;stroke-width:1.50600004;stroke-miterlimit:1.79999995;stroke-dasharray:none;stroke-dashoffset:0;stroke-opacity:1" />
      <path
         d="m 5004.9995,-821.315 a 30,30 0 0 1 -29.9947,30 30,30 0 0 1 -30.0053,-29.9895 30,30 0 0 1 29.9843,-30.0105 30,30 0 0 1 30.0157,29.979"
         sodipodi:open="true"
         sodipodi:end="6.2824853"
         sodipodi:start="0"
         sodipodi:ry="30"
         sodipodi:rx="30"
         sodipodi:cy="-821.315"
         sodipodi:cx="4974.9995"
         sodipodi:type="arc"
         id="path3338-8-6-3-4-3-8"
         style="fill:#ff0000;fill-opacity:1;stroke:#000000;stroke-width:1.50600004;stroke-miterlimit:1.79999995;stroke-dasharray:none;stroke-dashoffset:0;stroke-opacity:1" />
      <path
         d="m 4938.1143,-773.46149 a 30,30 0 0 1 -29.9948,30 30,30 0 0 1 -30.0052,-29.9895 30,30 0 0 1 29.9842,-30.01049 30,30 0 0 1 30.0158,29.97899"
         sodipodi:open="true"
         sodipodi:end="6.2824853"
         sodipodi:start="0"
         sodipodi:ry="30"
         sodipodi:rx="30"
         sodipodi:cy="-773.46149"
         sodipodi:cx="4908.1143"
         sodipodi:type="arc"
         id="path3338-2-74-1-3-7-0"
         style="fill:#ff0000;fill-opacity:1;stroke:#000000;stroke-width:1.50600004;stroke-miterlimit:1.79999995;stroke-dasharray:none;stroke-dashoffset:0;stroke-opacity:1" />
      <path
         d="m 4996.0103,-760.18707 a 30,30 0 0 1 -29.9948,30 30,30 0 0 1 -30.0052,-29.9895 30,30 0 0 1 29.9842,-30.0105 30,30 0 0 1 30.0157,29.979"
         sodipodi:open="true"
         sodipodi:end="6.2824853"
         sodipodi:start="0"
         sodipodi:ry="30"
         sodipodi:rx="30"
         sodipodi:cy="-760.18707"
         sodipodi:cx="4966.0103"
         sodipodi:type="arc"
         id="path3338-3-5-8-1-6-4"
         style="fill:#ff0000;fill-opacity:1;stroke:#000000;stroke-width:1.50600004;stroke-miterlimit:1.79999995;stroke-dasharray:none;stroke-dashoffset:0;stroke-opacity:1" />
      <path
         d="m 4895.6143,-816.31866 a 30,30 0 0 1 -29.9948,29.99999 30,30 0 0 1 -30.0052,-29.98949 30,30 0 0 1 29.9842,-30.0105 30,30 0 0 1 30.0158,29.979"
         sodipodi:open="true"
         sodipodi:end="6.2824853"
         sodipodi:start="0"
         sodipodi:ry="30"
         sodipodi:rx="30"
         sodipodi:cy="-816.31866"
         sodipodi:cx="4865.6143"
         sodipodi:type="arc"
         id="path3338-2-7-4-9-4-1-7"
         style="fill:#ff0000;fill-opacity:1;stroke:#000000;stroke-width:1.50600004;stroke-miterlimit:1.79999995;stroke-dasharray:none;stroke-dashoffset:0;stroke-opacity:1" />
      <path
         d="m 4900.7275,-706.27032 a 30,30 0 0 1 -29.9947,29.99999 30,30 0 0 1 -30.0053,-29.98949 30,30 0 0 1 29.9843,-30.0105 30,30 0 0 1 30.0157,29.979"
         sodipodi:open="true"
         sodipodi:end="6.2824853"
         sodipodi:start="0"
         sodipodi:ry="30"
         sodipodi:rx="30"
         sodipodi:cy="-706.27032"
         sodipodi:cx="4870.7275"
         sodipodi:type="arc"
         id="path3338-2-7-0-0-64-6-5-6"
         style="fill:#ff0000;fill-opacity:1;stroke:#000000;stroke-width:1.50600004;stroke-miterlimit:1.79999995;stroke-dasharray:none;stroke-dashoffset:0;stroke-opacity:1" />
      <path
         d="m 4962.0356,-705.55597 a 30,30 0 0 1 -29.9947,30 30,30 0 0 1 -30.0053,-29.9895 30,30 0 0 1 29.9843,-30.0105 30,30 0 0 1 30.0157,29.979"
         sodipodi:open="true"
         sodipodi:end="6.2824853"
         sodipodi:start="0"
         sodipodi:ry="30"
         sodipodi:rx="30"
         sodipodi:cy="-705.55597"
         sodipodi:cx="4932.0356"
         sodipodi:type="arc"
         id="path3338-2-7-2-6-3-9-0-8"
         style="fill:#ff0000;fill-opacity:1;stroke:#000000;stroke-width:1.50600004;stroke-miterlimit:1.79999995;stroke-dasharray:none;stroke-dashoffset:0;stroke-opacity:1" />
      <path
         d="m 5022.6426,-704.87335 a 30,30 0 0 1 -29.9948,30 30,30 0 0 1 -30.0052,-29.9895 30,30 0 0 1 29.9842,-30.0105 30,30 0 0 1 30.0158,29.979"
         sodipodi:open="true"
         sodipodi:end="6.2824853"
         sodipodi:start="0"
         sodipodi:ry="30"
         sodipodi:rx="30"
         sodipodi:cy="-704.87335"
         sodipodi:cx="4992.6426"
         sodipodi:type="arc"
         id="path3338-2-7-1-4-3-42-6-9"
         style="fill:#ff0000;fill-opacity:1;stroke:#000000;stroke-width:1.50600004;stroke-miterlimit:1.79999995;stroke-dasharray:none;stroke-dashoffset:0;stroke-opacity:1" />
      <text
         sodipodi:linespacing="125%"
         id="text4936-0"
         y="-884.6806"
         x="4771.1455"
         style="font-style:normal;font-weight:normal;font-size:23.77598953px;line-height:125%;font-family:sans-serif;letter-spacing:0px;word-spacing:0px;fill:#ff0000;fill-opacity:1;stroke:none;stroke-width:1px;stroke-linecap:butt;stroke-linejoin:miter;stroke-opacity:1"
         xml:space="preserve"><tspan
           style="fill:#ff0000;fill-opacity:1"
           y="-884.6806"
           x="4771.1455"
           id="tspan4938-6"
           sodipodi:role="line">subdomain=1 </tspan></text>
      <text
         sodipodi:linespacing="125%"
         id="text4936-6-8"
         y="-886.01996"
         x="5061.7681"
         style="font-style:normal;font-weight:normal;font-size:23.77598953px;line-height:125%;font-family:sans-serif;letter-spacing:0px;word-spacing:0px;fill:#5fa78d;fill-opacity:1;stroke:none;stroke-width:1px;stroke-linecap:butt;stroke-linejoin:miter;stroke-opacity:1"
         xml:space="preserve"><tspan
           style="fill:#5fa78d;fill-opacity:1"
           y="-886.01996"
           x="5061.7681"
           id="tspan4938-7-7"
           sodipodi:role="line">subdomain=2 </tspan></text>
      <text
         sodipodi:linespacing="125%"
         id="text4936-6-5-9"
         y="-648.24982"
         x="4945.8628"
         style="font-style:normal;font-weight:normal;font-size:23.77598953px;line-height:125%;font-family:sans-serif;letter-spacing:0px;word-spacing:0px;fill:#0508f2;fill-opacity:1;stroke:none;stroke-width:1px;stroke-linecap:butt;stroke-linejoin:miter;stroke-opacity:1"
         xml:space="preserve"><tspan
           id="tspan5851-0"
           style="fill:#0508f2;fill-opacity:1"
           y="-648.24982"
           x="4945.8628"
           sodipodi:role="line">subdomain=0 </tspan></text>
    </g>
  </g>
</svg>
