<?xml version="1.0" encoding="UTF-8" standalone="no"?>
<!-- Created with Inkscape (http://www.inkscape.org/) -->

<svg
   xmlns:dc="http://purl.org/dc/elements/1.1/"
   xmlns:cc="http://creativecommons.org/ns#"
   xmlns:rdf="http://www.w3.org/1999/02/22-rdf-syntax-ns#"
   xmlns:svg="http://www.w3.org/2000/svg"
   xmlns="http://www.w3.org/2000/svg"
   xmlns:sodipodi="http://sodipodi.sourceforge.net/DTD/sodipodi-0.dtd"
   xmlns:inkscape="http://www.inkscape.org/namespaces/inkscape"
   width="145.06709mm"
   height="98.963417mm"
   viewBox="0 0 514.01726 350.65778"
   id="svg16856"
   version="1.1"
   inkscape:version="0.91 r13725"
   sodipodi:docname="schema1b.svg">
  <defs
     id="defs16858" />
  <sodipodi:namedview
     id="base"
     pagecolor="#ffffff"
     bordercolor="#666666"
     borderopacity="1.0"
     inkscape:pageopacity="0.0"
     inkscape:pageshadow="2"
     inkscape:zoom="0.98994949"
     inkscape:cx="364.21829"
     inkscape:cy="158.34749"
     inkscape:document-units="px"
     inkscape:current-layer="layer1"
     showgrid="false"
     fit-margin-top="0"
     fit-margin-left="0"
     fit-margin-right="0"
     fit-margin-bottom="0"
     inkscape:window-width="1920"
     inkscape:window-height="1030"
     inkscape:window-x="0"
     inkscape:window-y="0"
     inkscape:window-maximized="1" />
  <metadata
     id="metadata16861">
    <rdf:RDF>
      <cc:Work
         rdf:about="">
        <dc:format>image/svg+xml</dc:format>
        <dc:type
           rdf:resource="http://purl.org/dc/dcmitype/StillImage" />
        <dc:title></dc:title>
      </cc:Work>
    </rdf:RDF>
  </metadata>
  <g
     inkscape:label="Layer 1"
     inkscape:groupmode="layer"
     id="layer1"
     transform="translate(-637.27705,-614.17618)">
    <g
       id="g11031-3-7-4-8-9"
       transform="translate(1500.4014,318.27494)">
      <path
         transform="matrix(0.00695828,-0.99997579,0.99997579,0.00695828,0,0)"
         d="m -445.77277,-538.43542 a 30,30 0 0 1 -29.99475,29.99999 30,30 0 0 1 -30.00524,-29.98949 30,30 0 0 1 29.98424,-30.0105 30,30 0 0 1 30.01575,29.97899"
         sodipodi:open="true"
         sodipodi:end="6.2824853"
         sodipodi:start="0"
         sodipodi:ry="30"
         sodipodi:rx="30"
         sodipodi:cy="-538.43542"
         sodipodi:cx="-475.77277"
         sodipodi:type="arc"
         id="path3338-7-3-3-5-2-3"
         style="fill:#5fa78d;fill-opacity:1;stroke:#000000;stroke-width:1.50600004;stroke-miterlimit:1.79999995;stroke-dasharray:none;stroke-dashoffset:0;stroke-opacity:1" />
      <rect
         transform="matrix(0.00695828,-0.99997579,0.99997579,0.00695828,0,0)"
         y="-587.90698"
         x="-526.172"
         height="99.49514"
         width="100.03532"
         id="rect3340-1-4-6-2-6-1"
         style="fill:none;fill-opacity:1;stroke:#000000;stroke-width:1.84200001;stroke-miterlimit:1.79999995;stroke-dasharray:3.68400002, 1.84200001;stroke-dashoffset:0;stroke-opacity:1" />
      <path
         transform="matrix(0.00695828,-0.99997579,0.99997579,0.00695828,0,0)"
         d="m -389.41107,-514.24518 a 30,30 0 0 1 -29.99475,30 30,30 0 0 1 -30.00525,-29.9895 30,30 0 0 1 29.98425,-30.01049 30,30 0 0 1 30.01574,29.97899"
         sodipodi:open="true"
         sodipodi:end="6.2824853"
         sodipodi:start="0"
         sodipodi:ry="30"
         sodipodi:rx="30"
         sodipodi:cy="-514.24518"
         sodipodi:cx="-419.41107"
         sodipodi:type="arc"
         id="path3338-8-5-4-4-5-0-4"
         style="fill:#5fa78d;fill-opacity:1;stroke:#000000;stroke-width:1.50600004;stroke-miterlimit:1.79999995;stroke-dasharray:none;stroke-dashoffset:0;stroke-opacity:1" />
      <rect
         transform="matrix(0.00695828,-0.99997579,0.99997579,0.00695828,0,0)"
         y="-563.71667"
         x="-469.8103"
         height="99.49514"
         width="100.03532"
         id="rect3340-7-9-3-7-4-6-8"
         style="fill:none;fill-opacity:1;stroke:#000000;stroke-width:1.84200001;stroke-miterlimit:1.79999995;stroke-dasharray:3.68400002, 1.84200001;stroke-dashoffset:0;stroke-opacity:1" />
      <path
         transform="matrix(0.00695828,-0.99997579,0.99997579,0.00695828,0,0)"
         d="m -456.29626,-466.39154 a 30,30 0 0 1 -29.99475,30 30,30 0 0 1 -30.00525,-29.9895 30,30 0 0 1 29.98425,-30.0105 30,30 0 0 1 30.01574,29.979"
         sodipodi:open="true"
         sodipodi:end="6.2824853"
         sodipodi:start="0"
         sodipodi:ry="30"
         sodipodi:rx="30"
         sodipodi:cy="-466.39154"
         sodipodi:cx="-486.29626"
         sodipodi:type="arc"
         id="path3338-2-76-9-9-7-6-9"
         style="fill:#5fa78d;fill-opacity:1;stroke:#000000;stroke-width:1.50600004;stroke-miterlimit:1.79999995;stroke-dasharray:none;stroke-dashoffset:0;stroke-opacity:1" />
      <rect
         transform="matrix(0.00695828,-0.99997579,0.99997579,0.00695828,0,0)"
         y="-515.86304"
         x="-536.6955"
         height="99.49514"
         width="100.03532"
         id="rect3340-0-7-7-7-4-4-6"
         style="fill:none;fill-opacity:1;stroke:#000000;stroke-width:1.84200001;stroke-miterlimit:1.79999995;stroke-dasharray:3.68400002, 1.84200001;stroke-dashoffset:0;stroke-opacity:1" />
      <path
         transform="matrix(0.00695828,-0.99997579,0.99997579,0.00695828,0,0)"
         d="m -398.40036,-453.11725 a 30,30 0 0 1 -29.99475,30 30,30 0 0 1 -30.00525,-29.9895 30,30 0 0 1 29.98425,-30.01049 30,30 0 0 1 30.01574,29.97899"
         sodipodi:open="true"
         sodipodi:end="6.2824853"
         sodipodi:start="0"
         sodipodi:ry="30"
         sodipodi:rx="30"
         sodipodi:cy="-453.11725"
         sodipodi:cx="-428.40036"
         sodipodi:type="arc"
         id="path3338-3-6-2-2-4-6-7"
         style="fill:#5fa78d;fill-opacity:1;stroke:#000000;stroke-width:1.50600004;stroke-miterlimit:1.79999995;stroke-dasharray:none;stroke-dashoffset:0;stroke-opacity:1" />
      <rect
         transform="matrix(0.00695828,-0.99997579,0.99997579,0.00695828,0,0)"
         y="-502.58881"
         x="-478.79962"
         height="99.49514"
         width="100.03532"
         id="rect3340-75-5-5-2-3-2-7"
         style="fill:none;fill-opacity:1;stroke:#000000;stroke-width:1.84200001;stroke-miterlimit:1.79999995;stroke-dasharray:3.68400002, 1.84200001;stroke-dashoffset:0;stroke-opacity:1" />
      <path
         transform="matrix(0.00695828,-0.99997579,0.99997579,0.00695828,0,0)"
         d="m -498.79626,-509.24866 a 30,30 0 0 1 -29.99475,30 30,30 0 0 1 -30.00525,-29.9895 30,30 0 0 1 29.98425,-30.01049 30,30 0 0 1 30.01574,29.97899"
         sodipodi:open="true"
         sodipodi:end="6.2824853"
         sodipodi:start="0"
         sodipodi:ry="30"
         sodipodi:rx="30"
         sodipodi:cy="-509.24866"
         sodipodi:cx="-528.79626"
         sodipodi:type="arc"
         id="path3338-2-7-9-8-1-0-8-3"
         style="fill:#5fa78d;fill-opacity:1;stroke:#000000;stroke-width:1.50600004;stroke-miterlimit:1.79999995;stroke-dasharray:none;stroke-dashoffset:0;stroke-opacity:1" />
      <rect
         transform="matrix(0.00695828,-0.99997579,0.99997579,0.00695828,0,0)"
         y="-558.72021"
         x="-579.1955"
         height="99.49514"
         width="100.03532"
         id="rect3340-0-8-4-90-6-7-9-7"
         style="fill:none;fill-opacity:1;stroke:#000000;stroke-width:1.84200001;stroke-miterlimit:1.79999995;stroke-dasharray:3.68400002, 1.84200001;stroke-dashoffset:0;stroke-opacity:1" />
      <path
         transform="matrix(0.00695828,-0.99997579,0.99997579,0.00695828,0,0)"
         d="m -493.68274,-399.20044 a 30,30 0 0 1 -29.99475,30 30,30 0 0 1 -30.00525,-29.9895 30,30 0 0 1 29.98425,-30.0105 30,30 0 0 1 30.01574,29.979"
         sodipodi:open="true"
         sodipodi:end="6.2824853"
         sodipodi:start="0"
         sodipodi:ry="30"
         sodipodi:rx="30"
         sodipodi:cy="-399.20044"
         sodipodi:cx="-523.68274"
         sodipodi:type="arc"
         id="path3338-2-7-0-1-24-3-8-6-1"
         style="fill:#5fa78d;fill-opacity:1;stroke:#000000;stroke-width:1.50600004;stroke-miterlimit:1.79999995;stroke-dasharray:none;stroke-dashoffset:0;stroke-opacity:1" />
      <rect
         transform="matrix(0.00695828,-0.99997579,0.99997579,0.00695828,0,0)"
         y="-448.672"
         x="-574.08203"
         height="99.49514"
         width="100.03532"
         id="rect3340-0-8-6-2-7-0-6-0-2"
         style="fill:none;fill-opacity:1;stroke:#000000;stroke-width:1.84200001;stroke-miterlimit:1.79999995;stroke-dasharray:3.68400002, 1.84200001;stroke-dashoffset:0;stroke-opacity:1" />
      <path
         transform="matrix(0.00695828,-0.99997579,0.99997579,0.00695828,0,0)"
         d="m -432.37469,-398.48615 a 30,30 0 0 1 -29.99475,30 30,30 0 0 1 -30.00525,-29.98949 30,30 0 0 1 29.98425,-30.0105 30,30 0 0 1 30.01574,29.97899"
         sodipodi:open="true"
         sodipodi:end="6.2824853"
         sodipodi:start="0"
         sodipodi:ry="30"
         sodipodi:rx="30"
         sodipodi:cy="-398.48615"
         sodipodi:cx="-462.37469"
         sodipodi:type="arc"
         id="path3338-2-7-2-3-6-2-8-7-2"
         style="fill:#5fa78d;fill-opacity:1;stroke:#000000;stroke-width:1.50600004;stroke-miterlimit:1.79999995;stroke-dasharray:none;stroke-dashoffset:0;stroke-opacity:1" />
      <rect
         transform="matrix(0.00695828,-0.99997579,0.99997579,0.00695828,0,0)"
         y="-447.9577"
         x="-512.77393"
         height="99.49514"
         width="100.03532"
         id="rect3340-0-8-0-9-5-1-8-0-1"
         style="fill:none;fill-opacity:1;stroke:#000000;stroke-width:1.84200001;stroke-miterlimit:1.79999995;stroke-dasharray:3.68400002, 1.84200001;stroke-dashoffset:0;stroke-opacity:1" />
      <path
         transform="matrix(0.00695828,-0.99997579,0.99997579,0.00695828,0,0)"
         d="m -371.76807,-397.80347 a 30,30 0 0 1 -29.99475,30 30,30 0 0 1 -30.00524,-29.9895 30,30 0 0 1 29.98424,-30.01049 30,30 0 0 1 30.01575,29.97899"
         sodipodi:open="true"
         sodipodi:end="6.2824853"
         sodipodi:start="0"
         sodipodi:ry="30"
         sodipodi:rx="30"
         sodipodi:cy="-397.80347"
         sodipodi:cx="-401.76807"
         sodipodi:type="arc"
         id="path3338-2-7-1-8-71-5-4-1-5"
         style="fill:#5fa78d;fill-opacity:1;stroke:#000000;stroke-width:1.50600004;stroke-miterlimit:1.79999995;stroke-dasharray:none;stroke-dashoffset:0;stroke-opacity:1" />
      <rect
         transform="matrix(0.00695828,-0.99997579,0.99997579,0.00695828,0,0)"
         y="-447.27502"
         x="-452.1673"
         height="99.49514"
         width="100.03532"
         id="rect3340-0-8-5-8-3-6-3-0-0"
         style="fill:none;fill-opacity:1;stroke:#000000;stroke-width:1.84200001;stroke-miterlimit:1.79999995;stroke-dasharray:3.68400002, 1.84200001;stroke-dashoffset:0;stroke-opacity:1" />
      <rect
         y="345.98221"
         x="-594.71362"
         height="226.84258"
         width="243.10652"
         id="rect6710-6-3-5-1-1-9"
         style="fill:none;fill-opacity:1;stroke:#5fa78d;stroke-width:5;stroke-miterlimit:4;stroke-dasharray:none;stroke-dashoffset:0;stroke-opacity:1" />
    </g>
    <text
       xml:space="preserve"
       style="font-style:normal;font-weight:normal;font-size:23.77598953px;line-height:125%;font-family:sans-serif;letter-spacing:0px;word-spacing:0px;fill:#000000;fill-opacity:1;stroke:none;stroke-width:1px;stroke-linecap:butt;stroke-linejoin:miter;stroke-opacity:1"
       x="698.61908"
       y="632.24036"
       id="text4936-0-5-4-6"
       sodipodi:linespacing="125%"><tspan
         sodipodi:role="line"
         id="tspan4938-6-4-1-5"
         x="698.61908"
         y="632.24036"
         style="fill:#000000;fill-opacity:1">Set Subdomain bound min &amp; max </tspan></text>
    <g
       id="g13041"
       transform="translate(-4035.8614,783.09386)">
      <g
         transform="translate(7032.8511,-1089.0938)"
         id="g10949-3-1-7-4">
        <path
           style="fill:#ff0000;fill-opacity:1;stroke:#000000;stroke-width:1.50600004;stroke-miterlimit:1.79999995;stroke-dasharray:none;stroke-dashoffset:0;stroke-opacity:1"
           id="path3338-81-0-1-0-3-8"
           sodipodi:type="arc"
           sodipodi:cx="-2254.4453"
           sodipodi:cy="1007.6381"
           sodipodi:rx="30"
           sodipodi:ry="30"
           sodipodi:start="0"
           sodipodi:end="6.2824853"
           sodipodi:open="true"
           d="m -2224.4453,1007.6381 a 30,30 0 0 1 -29.9948,30 30,30 0 0 1 -30.0052,-29.9895 30,30 0 0 1 29.9842,-30.01047 30,30 0 0 1 30.0158,29.97897" />
        <rect
           style="fill:none;fill-opacity:1;stroke:#000000;stroke-width:1.84200001;stroke-miterlimit:1.79999995;stroke-dasharray:3.68400002, 1.84200001;stroke-dashoffset:0;stroke-opacity:1"
           id="rect3340-2-9-8-6-1-1"
           width="100.03532"
           height="99.49514"
           x="-2304.8445"
           y="958.16656" />
        <path
           style="fill:#ff0000;fill-opacity:1;stroke:#000000;stroke-width:1.50600004;stroke-miterlimit:1.79999995;stroke-dasharray:none;stroke-dashoffset:0;stroke-opacity:1"
           id="path3338-8-9-9-3-3-1-6"
           sodipodi:type="arc"
           sodipodi:cx="-2198.0835"
           sodipodi:cy="1031.8285"
           sodipodi:rx="30"
           sodipodi:ry="30"
           sodipodi:start="0"
           sodipodi:end="6.2824853"
           sodipodi:open="true"
           d="m -2168.0835,1031.8285 a 30,30 0 0 1 -29.9947,30 30,30 0 0 1 -30.0053,-29.9895 30,30 0 0 1 29.9843,-30.0105 30,30 0 0 1 30.0157,29.979" />
        <rect
           style="fill:none;fill-opacity:1;stroke:#000000;stroke-width:1.84200001;stroke-miterlimit:1.79999995;stroke-dasharray:3.68400002, 1.84200001;stroke-dashoffset:0;stroke-opacity:1"
           id="rect3340-7-3-4-4-2-9-8"
           width="100.03532"
           height="99.49514"
           x="-2248.4829"
           y="982.35687" />
        <path
           style="fill:#ff0000;fill-opacity:1;stroke:#000000;stroke-width:1.50600004;stroke-miterlimit:1.79999995;stroke-dasharray:none;stroke-dashoffset:0;stroke-opacity:1"
           id="path3338-2-8-5-2-0-0-5"
           sodipodi:type="arc"
           sodipodi:cx="-2264.9688"
           sodipodi:cy="1079.682"
           sodipodi:rx="30"
           sodipodi:ry="30"
           sodipodi:start="0"
           sodipodi:end="6.2824853"
           sodipodi:open="true"
           d="m -2234.9688,1079.682 a 30,30 0 0 1 -29.9947,30 30,30 0 0 1 -30.0052,-29.9895 30,30 0 0 1 29.9842,-30.0105 30,30 0 0 1 30.0157,29.979" />
        <rect
           style="fill:none;fill-opacity:1;stroke:#000000;stroke-width:1.84200001;stroke-miterlimit:1.79999995;stroke-dasharray:3.68400002, 1.84200001;stroke-dashoffset:0;stroke-opacity:1"
           id="rect3340-0-0-1-2-6-5-2"
           width="100.03532"
           height="99.49514"
           x="-2315.3682"
           y="1030.2104" />
        <path
           style="fill:#ff0000;fill-opacity:1;stroke:#000000;stroke-width:1.50600004;stroke-miterlimit:1.79999995;stroke-dasharray:none;stroke-dashoffset:0;stroke-opacity:1"
           id="path3338-3-1-0-4-1-6-1"
           sodipodi:type="arc"
           sodipodi:cx="-2207.073"
           sodipodi:cy="1092.9563"
           sodipodi:rx="30"
           sodipodi:ry="30"
           sodipodi:start="0"
           sodipodi:end="6.2824853"
           sodipodi:open="true"
           d="m -2177.073,1092.9563 a 30,30 0 0 1 -29.9947,30 30,30 0 0 1 -30.0053,-29.9895 30,30 0 0 1 29.9843,-30.0105 30,30 0 0 1 30.0157,29.979" />
        <rect
           style="fill:none;fill-opacity:1;stroke:#000000;stroke-width:1.84200001;stroke-miterlimit:1.79999995;stroke-dasharray:3.68400002, 1.84200001;stroke-dashoffset:0;stroke-opacity:1"
           id="rect3340-75-0-3-51-5-7-9"
           width="100.03532"
           height="99.49514"
           x="-2257.4722"
           y="1043.4846" />
        <path
           style="fill:#ff0000;fill-opacity:1;stroke:#000000;stroke-width:1.50600004;stroke-miterlimit:1.79999995;stroke-dasharray:none;stroke-dashoffset:0;stroke-opacity:1"
           id="path3338-2-7-11-7-7-5-7-9"
           sodipodi:type="arc"
           sodipodi:cx="-2307.4688"
           sodipodi:cy="1036.8248"
           sodipodi:rx="30"
           sodipodi:ry="30"
           sodipodi:start="0"
           sodipodi:end="6.2824853"
           sodipodi:open="true"
           d="m -2277.4688,1036.8248 a 30,30 0 0 1 -29.9947,30 30,30 0 0 1 -30.0052,-29.9895 30,30 0 0 1 29.9842,-30.0105 30,30 0 0 1 30.0157,29.979" />
        <rect
           style="fill:none;fill-opacity:1;stroke:#000000;stroke-width:1.84200001;stroke-miterlimit:1.79999995;stroke-dasharray:3.68400002, 1.84200001;stroke-dashoffset:0;stroke-opacity:1"
           id="rect3340-0-8-08-8-5-4-4-6"
           width="100.03532"
           height="99.49514"
           x="-2357.8682"
           y="987.35327" />
        <path
           style="fill:#ff0000;fill-opacity:1;stroke:#000000;stroke-width:1.50600004;stroke-miterlimit:1.79999995;stroke-dasharray:none;stroke-dashoffset:0;stroke-opacity:1"
           id="path3338-2-7-0-06-8-7-7-0-0"
           sodipodi:type="arc"
           sodipodi:cx="-2302.3552"
           sodipodi:cy="1146.873"
           sodipodi:rx="30"
           sodipodi:ry="30"
           sodipodi:start="0"
           sodipodi:end="6.2824853"
           sodipodi:open="true"
           d="m -2272.3552,1146.873 a 30,30 0 0 1 -29.9948,30 30,30 0 0 1 -30.0052,-29.9895 30,30 0 0 1 29.9842,-30.0104 30,30 0 0 1 30.0158,29.9789" />
        <rect
           style="fill:none;fill-opacity:1;stroke:#000000;stroke-width:1.84200001;stroke-miterlimit:1.79999995;stroke-dasharray:3.68400002, 1.84200001;stroke-dashoffset:0;stroke-opacity:1"
           id="rect3340-0-8-6-46-6-1-6-6-6"
           width="100.03532"
           height="99.49514"
           x="-2352.7546"
           y="1097.4015" />
        <path
           style="fill:#ff0000;fill-opacity:1;stroke:#000000;stroke-width:1.50600004;stroke-miterlimit:1.79999995;stroke-dasharray:none;stroke-dashoffset:0;stroke-opacity:1"
           id="path3338-2-7-2-5-0-6-5-4-4"
           sodipodi:type="arc"
           sodipodi:cx="-2241.0471"
           sodipodi:cy="1147.5873"
           sodipodi:rx="30"
           sodipodi:ry="30"
           sodipodi:start="0"
           sodipodi:end="6.2824853"
           sodipodi:open="true"
           d="m -2211.0471,1147.5873 a 30,30 0 0 1 -29.9948,30 30,30 0 0 1 -30.0052,-29.9895 30,30 0 0 1 29.9842,-30.0105 30,30 0 0 1 30.0158,29.979" />
        <rect
           style="fill:none;fill-opacity:1;stroke:#000000;stroke-width:1.84200001;stroke-miterlimit:1.79999995;stroke-dasharray:3.68400002, 1.84200001;stroke-dashoffset:0;stroke-opacity:1"
           id="rect3340-0-8-0-8-4-9-6-7-9"
           width="100.03532"
           height="99.49514"
           x="-2291.4463"
           y="1098.1157" />
        <path
           style="fill:#ff0000;fill-opacity:1;stroke:#000000;stroke-width:1.50600004;stroke-miterlimit:1.79999995;stroke-dasharray:none;stroke-dashoffset:0;stroke-opacity:1"
           id="path3338-2-7-1-2-6-8-9-4-9"
           sodipodi:type="arc"
           sodipodi:cx="-2180.4404"
           sodipodi:cy="1148.2701"
           sodipodi:rx="30"
           sodipodi:ry="30"
           sodipodi:start="0"
           sodipodi:end="6.2824853"
           sodipodi:open="true"
           d="m -2150.4404,1148.2701 a 30,30 0 0 1 -29.9948,30 30,30 0 0 1 -30.0052,-29.9895 30,30 0 0 1 29.9842,-30.0105 30,30 0 0 1 30.0158,29.979" />
        <rect
           style="fill:none;fill-opacity:1;stroke:#000000;stroke-width:1.84200001;stroke-miterlimit:1.79999995;stroke-dasharray:3.68400002, 1.84200001;stroke-dashoffset:0;stroke-opacity:1"
           id="rect3340-0-8-5-84-7-1-3-8-0"
           width="100.03532"
           height="99.49514"
           x="-2230.8398"
           y="1098.7986" />
        <rect
           style="fill:none;fill-opacity:0.42352941;stroke:#ff0000;stroke-width:5;stroke-miterlimit:1.79999995;stroke-dasharray:none;stroke-dashoffset:0;stroke-opacity:1"
           id="rect6810-6-33-7-5-8"
           width="227.25484"
           height="240.11197"
           x="-2357.2126"
           y="956.2959" />
      </g>
      <rect
         y="8.913475"
         x="4802.3477"
         height="99.49514"
         width="100.03532"
         id="rect3340-0-8-5-1-4-4"
         style="fill:none;fill-opacity:1;stroke:#000000;stroke-width:1.84200001;stroke-miterlimit:1.79999995;stroke-dasharray:3.68400002, 1.84200001;stroke-dashoffset:0;stroke-opacity:1" />
    </g>
    <g
       id="g13037"
       transform="translate(-3910.662,791.86579)">
      <path
         inkscape:connector-curvature="0"
         id="path5193-8-1-7-9-8-9-3"
         d="m 4578.5011,157.51399 465.3571,0"
         style="fill:none;fill-rule:evenodd;stroke:#0508f2;stroke-width:4.5079999;stroke-linecap:butt;stroke-linejoin:miter;stroke-miterlimit:4;stroke-dasharray:none;stroke-opacity:1" />
      <rect
         y="145.61932"
         x="4568.2427"
         height="25.32785"
         width="484.63876"
         id="rect12915-8"
         style="fill:none;fill-opacity:1;stroke:#0508f2;stroke-width:4.04199982;stroke-linecap:round;stroke-linejoin:miter;stroke-miterlimit:1.79999995;stroke-dasharray:none;stroke-dashoffset:0;stroke-opacity:1" />
    </g>
  </g>
</svg>
